<svg width="586" height="4514" viewBox="0 0 586 4514" fill="none" xmlns="http://www.w3.org/2000/svg">
<g opacity="0.8">
<path d="M105.817 0.999994C106.293 171.312 100.361 356.904 114.212 524.367C137.31 803.053 194.267 1061.89 222.402 1337.76C232.489 1436.77 238.533 1534.46 219.954 1630.25C204.13 1711.66 175.855 1777.92 148.335 1840.27C99.5913 1950.68 34.1846 2067.26 28.0846 2233.94C24.1532 2341.53 49.7843 2446.46 72.3373 2537.36C97.9124 2640.38 127.181 2738.51 152.77 2841.5C175.743 2933.91 202.899 3043.41 197.023 3153.16C191.958 3247.73 163.767 3327.11 135.841 3394.55C81.1514 3526.6 -6.62649 3662.09 1.53011 3865.22C10.8759 4098.75 99.3534 4272.92 105.817 4510.08" stroke="url(#paint0_linear_1898_11165)" stroke-width="2" stroke-miterlimit="10"/>
<path d="M122.23 1.02441C123.097 172.056 115.612 357.085 130.428 525.143C154.562 798.882 212.456 1051.89 241.585 1322.72C252.372 1422.92 257.982 1518.05 239.276 1615.21C223.341 1698.1 195.359 1766.71 168.077 1831.34C119.865 1945.41 53.8009 2066.9 45.4764 2233.58C40.1319 2340.52 65.8329 2445.82 88.372 2535.94C113.821 2637.71 143.118 2734.37 168.595 2836.11C191.694 2928.33 218.64 3037.83 211.658 3147.42C205.656 3241.71 177.059 3322.25 149.442 3390.63C95.857 3523.37 9.72997 3662.78 17.6487 3863.46C26.8966 4097.56 115.878 4272.28 122.229 4510.01" stroke="url(#paint1_linear_1898_11165)" stroke-width="2" stroke-miterlimit="10"/>
<path d="M138.36 1.0913C139.395 173.094 129.826 357.622 145.509 526.713C170.385 794.878 229.034 1041.28 258.834 1306.41C270.223 1407.46 275.301 1500.36 256.834 1598.62C241.01 1682.79 213.756 1754.15 186.684 1821.2C139.115 1939.09 73.289 2066.19 62.9499 2232.71C56.3602 2338.67 81.5296 2443.17 103.971 2532.47C129.154 2632.52 158.269 2727.14 183.438 2827.13C206.579 2919.06 232.755 3027.53 224.781 3136.63C217.869 3231 189.146 3312.98 161.822 3382.9C109.357 3517.39 25.3847 3661.37 33.1915 3860.52C42.3974 4095.65 131.952 4271.35 138.276 4510.11" stroke="url(#paint2_linear_1898_11165)" stroke-width="2" stroke-miterlimit="10"/>
<path d="M154.184 1.14746C155.177 174.34 143.075 358.774 159.557 529.055C184.894 791.082 244.145 1030.31 274.462 1289.21C286.341 1390.67 290.804 1481.82 272.868 1580.89C257.366 1666.56 230.895 1740.59 204.313 1810.23C157.598 1933.04 92.7227 2064.59 80.4808 2231.58C72.8139 2336.29 96.8919 2438.93 119.179 2527.36C143.859 2625.21 172.722 2717.43 197.429 2815.22C220.584 2906.81 245.46 3013.18 236.603 3121.62C228.839 3216.44 200.228 3300.11 173.281 3372.13C121.977 3509.31 40.5791 3658.42 48.344 3856.51C57.6199 4093.08 147.776 4270.12 154.142 4510.32" stroke="url(#paint3_linear_1898_11165)" stroke-width="2" stroke-miterlimit="10"/>
<path d="M169.701 1.17285C170.484 175.775 155.472 360.146 172.667 531.961C198.228 787.413 258.01 1019.04 288.496 1271.26C300.78 1372.65 305.649 1452.56 288.496 1552.14C273.906 1636.84 246.873 1725.96 221.102 1798.45C175.451 1926.83 112.129 2062.39 98.1238 2230.01C81.209 2432.29 169.239 2636.7 210.735 2800.62C233.848 2891.87 257.003 2995.36 247.307 3102.86C238.675 3198.42 210.343 3283.85 183.803 3358.34C133.702 3499 55.2142 3653.69 63.021 3851.27C72.4228 4089.59 163.237 4268.33 169.7 4510.25" stroke="url(#paint4_linear_1898_11165)" stroke-width="2" stroke-miterlimit="10"/>
<path d="M184.894 1.25244C185.327 177.388 167.097 361.791 184.894 535.391C210.469 783.985 270.531 1007.62 301.115 1252.84C313.706 1353.88 315.015 1445.28 298.855 1545.14C284.459 1633.94 260.392 1712.13 235.085 1788.56C190.735 1922.52 131.351 2059.74 115.611 2228.21C97.0316 2427.42 182.515 2623.03 223.34 2783.92C245.879 2872.88 268.6 2976.59 256.988 3081.14C246.215 3178.21 220.094 3263.73 193.512 3342.45C144.684 3487.15 69.3718 3647.78 77.2626 3845.37C86.8462 4085.73 178.346 4266.37 184.991 4510.34" stroke="url(#paint5_linear_1898_11165)" stroke-width="2" stroke-miterlimit="10"/>
<path d="M199.793 1.30956C199.793 179.105 178.065 363.696 196.519 539.237C221.912 780.755 281.647 994.582 313.114 1240.58C365.985 1653.92 171.065 1862.39 133.71 2225.46C113.549 2421.17 195.218 2607.62 235.217 2765.6C257.603 2854.15 277.987 2953.85 265.717 3057.09C254.035 3155.38 228.488 3242.9 202.409 3324.79C154.841 3473.99 82.9561 3640.86 90.9728 3838.85C100.766 4081.43 192.979 4264.21 199.793 4510.42" stroke="url(#paint6_linear_1898_11165)" stroke-width="2" stroke-miterlimit="10"/>
<path d="M214.372 1.36914C213.784 180.887 188.489 365.791 207.488 543.43C232.546 777.746 293 984.944 323.15 1215.5C376.063 1620.29 190.238 1866.81 150.21 2224.03C128.636 2416.36 207.39 2590.93 246.62 2746.02C268.922 2834.2 286.62 2929.55 273.79 3031.32C261.199 3130.92 236.295 3220.67 210.762 3305.84C164.593 3459.84 96.1639 3633.06 104.362 3831.9C114.45 4076.86 207.334 4261.92 214.372 4510.51" stroke="url(#paint7_linear_1898_11165)" stroke-width="2" stroke-miterlimit="10"/>
<path d="M228.642 1.43603C227.453 182.739 198.464 368.018 217.939 547.881C242.535 775.026 303.058 973.738 332.803 1197.16C385.562 1593.36 209.894 1870.39 167.194 2221.82C144.249 2410.7 219.128 2573.4 257.588 2725.77C279.764 2813.63 294.622 2904.25 281.373 3004.45C267.956 3105.44 243.598 3197.5 218.694 3286.05C173.924 3445 109.063 3624.61 117.443 3824.45C127.838 4071.82 221.422 4259.33 228.698 4510.39" stroke="url(#paint8_linear_1898_11165)" stroke-width="2" stroke-miterlimit="10"/>
<path d="M242.604 1.49414C240.8 184.55 208.103 370.362 227.984 552.604C252.02 772.735 312.572 963.244 341.813 1179.46C394.264 1567.24 229.145 1873.89 183.885 2219.56C159.597 2405.02 230.488 2555.51 268.207 2705.28C290.243 2792.77 302.177 2878.98 288.452 2977.52C274.181 3079.91 250.439 3174.38 226.151 3266.26C182.78 3430.18 121.5 3616.12 130.091 3817.21C140.78 4067.18 235.021 4257 242.604 4510.58" stroke="url(#paint9_linear_1898_11165)" stroke-width="2" stroke-miterlimit="10"/>
<path d="M256.246 1.55273C253.839 186.3 217.519 372.738 237.736 557.078C261.142 770.445 321.68 952.907 350.347 1162.23C402.393 1542.34 248.019 1877.43 200.227 2217.49C174.624 2399.57 241.527 2537.82 278.575 2685.15C300.47 2772.26 309.48 2854.24 295.364 2950.9C280.226 3054.7 257.029 3151.55 233.413 3246.71C191.524 3415.46 133.701 3607.6 142.473 3810.07C153.456 4062.55 248.467 4254.71 256.218 4510.76" stroke="url(#paint10_linear_1898_11165)" stroke-width="2" stroke-miterlimit="10"/>
<path d="M269.593 1.6206C266.613 188.215 226.81 375.092 247.306 561.686C270.041 768.634 330.307 943.142 358.358 1145.96C409.928 1518.77 266.271 1880.66 215.947 2215.02C189 2394.06 252.427 2520.19 288.732 2665.49C310.418 2752.32 316.714 2830.01 302.192 2925.04C286.186 3030.19 263.451 3129.39 240.52 3227.65C200.073 3401.03 145.649 3599.09 154.645 3802.97C165.908 4057.82 261.604 4252.25 269.593 4510.64" stroke="url(#paint11_linear_1898_11165)" stroke-width="2" stroke-miterlimit="10"/>
<path d="M282.619 1.6792C279.149 190.027 236.071 377.436 256.778 566.129C278.732 765.964 339.119 931.988 366.717 1131.42C393.299 1322.28 365.792 1525.6 333.725 1703.86C302.792 1875.77 259.716 2038.91 231.664 2213.38C203.235 2390.18 263.451 2502.94 298.82 2647.13C345.759 2838.61 286.228 3034.73 247.628 3209.99C208.565 3387.56 157.387 3591.19 166.579 3796.42C178.08 4053.53 274.448 4250.08 282.632 4510.76" stroke="url(#paint12_linear_1898_11165)" stroke-width="2" stroke-miterlimit="10"/>
<path d="M295.35 1.74658C291.475 191.848 245.417 379.288 266.277 570.392C287.655 766.067 348.892 926.873 375.684 1118.32C402.182 1307.42 373.403 1515.81 344.037 1694.92C315.272 1870.31 276.505 2037.28 246.62 2211.73C216.736 2386.17 274 2488.07 308.865 2630.42C354.685 2817.54 290.677 3021.83 254.791 3194.05C217.016 3375.35 168.944 3584.15 178.261 3790.5C189.972 4049.62 286.984 4248.11 295.35 4510.7" stroke="url(#paint13_linear_1898_11165)" stroke-width="2" stroke-miterlimit="10"/>
<path d="M307.76 1.80615C303.563 193.693 254.931 380.976 275.917 574.303C296.637 765.313 357.063 920.25 383.338 1106.63C409.711 1294.28 382.107 1507.43 355.175 1687.36C328.438 1865.84 292.734 2036.12 261.017 2210.29C246.061 2292.45 245.445 2352.67 264.738 2432.11C280.422 2496.68 303.199 2551.29 318.995 2615.76C340.093 2701.78 339.505 2770.29 323.821 2860.38C304.948 2968.63 283.248 3074.09 262.164 3180.3C225.676 3364.64 180.402 3577.98 189.804 3785.27C201.64 4046.17 299.296 4246.32 307.76 4510.8" stroke="url(#paint14_linear_1898_11165)" stroke-width="2" stroke-miterlimit="10"/>
<path d="M319.876 1.8706C315.679 195.542 264.724 382.262 285.78 577.843C305.941 765.064 366.591 914.709 392.194 1097.33C418.371 1284.02 391.914 1501.08 367.011 1681.72C342.107 1862.37 308.249 2035.81 274.672 2209.41C259.156 2289.63 256.959 2348.28 276.155 2427.04C291.377 2489.47 313.846 2541.58 329.18 2603.86C350.25 2689.41 348.011 2756.86 331.81 2845.38C311.901 2954.16 290.243 3061.25 269.747 3169.47C234.406 3356.13 191.65 3573.63 201.08 3781.23C212.986 4043.57 311.229 4245.07 319.75 4510.83" stroke="url(#paint15_linear_1898_11165)" stroke-width="2" stroke-miterlimit="10"/>
<path d="M331.656 1.93213C327.571 197.42 274.854 383.075 295.966 580.848C315.679 765.282 376.791 910.262 401.638 1090.34C427.395 1276.78 402.142 1496.19 379.015 1677.96C355.72 1861.21 323.276 2036.15 287.851 2209.03C271.762 2287.63 268.376 2345.62 287.572 2423.78C302.472 2484.53 324.801 2534.53 339.841 2595.09C360.981 2680.23 357.553 2747.62 340.736 2834.79C319.75 2943.73 298.037 3052.08 277.974 3161.95C243.655 3349.83 203.109 3570.96 212.469 3778.41C224.361 4041.79 323.164 4244.26 331.656 4511.14" stroke="url(#paint16_linear_1898_11165)" stroke-width="2" stroke-miterlimit="10"/>
<path d="M343.142 1.99023C339.435 199.263 285.444 383.321 306.612 583.286C325.934 765.81 387.311 907.658 411.865 1085.58C437.496 1271.42 412.788 1493.71 391.102 1675.96C369.067 1861.08 337.504 2036.81 300.163 2208.87C283.374 2286.19 279.316 2344.49 298.638 2422.24C313.426 2481.74 335.769 2530.18 350.697 2589.58C372.019 2674.4 367.99 2742.73 350.403 2828.87C328.214 2937.59 306.347 3046.75 286.62 3157.85C253.168 3346.29 214.441 3569.99 223.661 3776.59C235.427 4040.59 334.762 4243.57 343.142 4511.07" stroke="url(#paint17_linear_1898_11165)" stroke-width="2" stroke-miterlimit="10"/>
<path d="M354.335 2.08154C351.005 200.356 296.428 383.13 317.791 584.317C337.099 766.214 398.42 907.217 422.834 1084.57C448.381 1270.23 423.17 1493.52 401.946 1675.83C380.316 1861.61 348.991 2036.77 311.481 2209.06C294.693 2286.09 293.183 2344.76 312.378 2421.98C327.069 2481.07 347.228 2529.64 361.96 2588.73C383.03 2673.27 379.113 2742.85 361.023 2828.18C338.078 2936.43 316.042 3045.71 296.511 3157.28C263.675 3344.81 225.382 3571.43 234.952 3776.43C247.236 4040.06 344.891 4244.35 354.293 4511.16" stroke="url(#paint18_linear_1898_11165)" stroke-width="2" stroke-miterlimit="10"/>
<path d="M365.345 2.16015C362.183 200.873 307.242 383.115 328.857 584.771C348.332 766.387 409.136 908.11 433.396 1085.59C458.775 1271.25 432.459 1494.04 411.095 1676.06C389.353 1861.25 357.679 2035.65 321.947 2209.13C286.902 2379.26 341.822 2454.39 372.566 2589.96C392.838 2674.5 389.549 2744.53 371.389 2829.07C348.234 2936.85 326.255 3045.95 306.948 3157.49C274.685 3343.92 236.211 3573.48 246.592 3777.01C259.995 4039.51 353.677 4246.3 365.135 4511.34" stroke="url(#paint19_linear_1898_11165)" stroke-width="2" stroke-miterlimit="10"/>
<path d="M376.188 2.21875C373.138 201.526 317.79 383.33 339.588 585.613C359.175 767.228 419.335 909.515 443.371 1087.09C468.554 1272.75 441.23 1494.88 419.797 1676.62C398.041 1861.09 366.912 2034.84 332.984 2209.32C301.309 2372.15 352.389 2456.44 383.351 2591.78C402.742 2676.32 399.16 2746.97 380.972 2830.76C357.692 2938.04 335.88 3046.82 316.909 3158.33C285.304 3344.01 247.235 3575.85 258.315 3777.7C272.642 4038.88 362.253 4248.21 375.53 4511.3" stroke="url(#paint20_linear_1898_11165)" stroke-width="2" stroke-miterlimit="10"/>
<path d="M386.835 2.28564C383.869 202.282 328.074 383.804 349.969 586.838C369.528 768.235 429.003 911.367 452.787 1089.07C477.551 1274.72 449.541 1496.14 428.094 1677.54C406.408 1861.12 375.516 2034.5 343.464 2209.61C313.901 2371.28 363.848 2458.45 393.369 2594.13C411.794 2678.9 408.213 2750.07 390.039 2833.24C366.716 2939.92 345.156 3048.48 326.633 3159.8C295.783 3345.02 258.652 3578.27 270.306 3778.74C285.402 4038.64 370.801 4250.37 385.716 4511.46" stroke="url(#paint21_linear_1898_11165)" stroke-width="2" stroke-miterlimit="10"/>
<path d="M397.3 2.34424C394.362 203.186 338.133 384.364 360.043 588.431C379.49 769.671 438.293 913.68 461.601 1091.54C485.931 1277.13 457.292 1497.42 435.914 1678.75C414.369 1861.34 383.799 2034.19 353.677 2210.01C326.185 2370.46 374.817 2460.7 402.742 2597.01C420.175 2682.05 416.467 2753.79 398.349 2836.43C374.908 2942.28 354.05 3050.9 335.867 3161.8C305.87 3346.86 270.11 3580.77 282.296 3780.08C298.008 4038.29 379.098 4252.62 395.425 4511.43" stroke="url(#paint22_linear_1898_11165)" stroke-width="2" stroke-miterlimit="10"/>
<path d="M407.57 2.43701C404.632 204.187 347.913 385.302 369.795 590.371C389.088 771.455 447.108 916.434 469.941 1094.51C493.725 1280.04 464.638 1499.39 443.358 1680.38C422.036 1862 391.886 2034.37 363.723 2210.6C338.26 2369.86 385.451 2463.36 411.683 2600.48C428.038 2685.94 424.121 2758.21 406.087 2840.37C382.801 2945.59 362.334 3053.81 344.793 3164.46C315.735 3349.62 281.919 3583.49 294.427 3781.74C310.614 4038.29 387.269 4255.07 404.87 4511.61" stroke="url(#paint23_linear_1898_11165)" stroke-width="2" stroke-miterlimit="10"/>
<path d="M417.615 2.50537C414.663 205.289 357.455 386.372 379.169 592.6C398.224 773.558 455.404 919.571 477.691 1097.71C500.888 1283.15 471.452 1501.34 450.354 1682.17C429.367 1862.44 399.693 2034.75 373.53 2211.17C350.068 2369.3 395.65 2466.25 420.106 2604.31C435.327 2690.23 431.116 2763.07 413.11 2844.89C390.047 2949.38 370.04 3057.11 353.216 3167.41C325.234 3352.88 293.671 3586.04 306.473 3783.43C322.982 4038.2 395.118 4257.33 413.796 4511.56" stroke="url(#paint24_linear_1898_11165)" stroke-width="2" stroke-miterlimit="10"/>
<path d="M427.464 2.56396C424.442 206.475 366.688 387.715 388.29 595.132C407.009 775.965 463.28 923.043 484.966 1101.37C507.491 1286.68 477.845 1503.68 456.984 1684.11C436.278 1863.12 407.275 2035.25 383.127 2211.73C361.651 2368.77 405.512 2469.34 428.093 2608.44C442.084 2694.89 437.551 2768.29 419.699 2849.86C396.909 2953.66 377.437 3060.95 361.427 3170.91C334.523 3356.98 305.632 3588.82 318.658 3785.5C335.447 4038.41 402.896 4259.79 422.539 4511.65" stroke="url(#paint25_linear_1898_11165)" stroke-width="2" stroke-miterlimit="10"/>
<path d="M437.09 2.63086C433.984 207.763 375.671 388.972 396.979 597.924C415.418 778.632 470.738 926.868 491.752 1105.38C513.535 1290.54 483.791 1506.19 463.197 1686.37C442.868 1864.13 414.593 2036.1 392.488 2212.43C372.9 2368.4 414.971 2472.83 435.607 2613.01C448.408 2700.06 443.386 2774.03 425.813 2855.41C403.369 2958.48 384.492 3065.26 369.347 3174.8C343.674 3361.58 317.763 3591.55 330.942 3787.66C347.731 4038.7 410.549 4262.18 431.004 4511.65" stroke="url(#paint26_linear_1898_11165)" stroke-width="2" stroke-miterlimit="10"/>
<path d="M446.478 2.68945C443.26 209.105 384.387 390.502 405.401 600.769C423.408 781.571 477.776 930.966 498.062 1109.7C519.048 1294.67 489.318 1508.82 469.031 1688.99C449.136 1865.44 421.673 2037.29 401.624 2213.42C383.982 2368.33 424.093 2476.83 442.687 2618.18C454.215 2705.85 448.703 2780.35 431.214 2861.67C409.164 2963.99 390.946 3070.24 376.748 3179.31C352.39 3366.81 329.669 3594.46 343.003 3790.13C359.889 4039.19 417.811 4264.68 438.965 4511.77" stroke="url(#paint27_linear_1898_11165)" stroke-width="2" stroke-miterlimit="10"/>
<path d="M455.586 2.75781C452.27 210.457 392.837 392.073 413.501 604.188C431.102 784.708 484.406 935.355 503.924 1114.28C524.084 1299.02 494.424 1511.7 474.543 1691.47C455.124 1866.64 428.569 2038.36 410.563 2214.12C394.782 2368.05 432.948 2480.84 449.402 2623.29C459.629 2711.59 453.599 2786.68 436.236 2868.03C414.627 2969.58 397.12 3075.26 383.925 3183.79C360.98 3372.51 341.813 3597.34 355.118 3792.7C371.907 4039.83 424.96 4267.1 446.715 4511.84" stroke="url(#paint28_linear_1898_11165)" stroke-width="2" stroke-miterlimit="10"/>
<path d="M464.54 2.8164C461.029 212.019 401.022 393.979 421.295 607.597C438.405 788.086 490.647 940.048 509.353 1119.1C528.618 1303.69 499.125 1514.77 479.58 1694.29C460.651 1868.14 435.104 2039.73 419.14 2215.02C405.149 2368.05 441.26 2485.29 455.516 2628.79C464.4 2717.75 457.727 2793.41 440.602 2874.88C419.477 2975.66 402.728 3080.75 390.585 3188.7C369.151 3378.58 353.663 3600.28 366.983 3795.39C383.702 4040.57 431.69 4269.47 453.949 4511.9" stroke="url(#paint29_linear_1898_11165)" stroke-width="2" stroke-miterlimit="10"/>
<path d="M473.199 2.88379C469.506 213.589 408.926 395.863 428.751 611.265C445.358 791.597 496.494 944.781 514.346 1124.14C532.702 1308.48 503.419 1517.94 484.308 1697.17C465.91 1869.77 441.44 2041.15 427.519 2215.87C415.389 2368.12 449.317 2489.89 461.447 2634.5C468.96 2724.08 461.629 2800.27 444.658 2882.03C424.059 2982.02 408.118 3086.5 397.089 3193.81C377.279 3384.82 365.638 3603.14 378.901 3798.15C395.425 4041.42 438.348 4271.76 461.055 4511.97" stroke="url(#paint30_linear_1898_11165)" stroke-width="2" stroke-miterlimit="10"/>
<path d="M481.594 2.94189C477.704 215.119 416.551 397.862 435.9 614.925C451.975 795.288 501.978 949.755 518.949 1129.34C536.339 1313.43 507.351 1521.22 488.687 1700.33C470.821 1871.71 447.526 2042.83 435.634 2217C425.295 2368.58 457.012 2494.99 466.903 2640.63C473.045 2730.87 465.015 2807.59 448.296 2889.66C428.229 2988.88 413.112 3092.75 403.217 3199.38C385.127 3391.67 377.46 3606.26 390.626 3801.22C406.939 4042.33 444.686 4274.05 467.771 4512.02" stroke="url(#paint31_linear_1898_11165)" stroke-width="2" stroke-miterlimit="10"/>
<path d="M489.723 3.00049C485.624 216.712 423.966 399.925 442.728 618.772C458.244 799.135 507.113 954.886 523.161 1134.69C539.53 1318.53 510.905 1524.63 492.717 1703.52C475.41 1873.74 453.361 2044.55 443.483 2217.96C434.879 2369.02 464.344 2500.03 471.997 2646.61C476.739 2737.41 467.981 2814.73 451.472 2897.11C431.977 2995.56 417.725 3098.8 409.01 3204.7C392.739 3398.21 389.115 3609.01 402.183 3803.97C418.216 4043.33 450.745 4275.95 474.165 4511.86" stroke="url(#paint32_linear_1898_11165)" stroke-width="2" stroke-miterlimit="10"/>
<path d="M497.557 3.06933C493.248 218.347 430.961 402.092 449.233 622.692C464.189 803.024 511.884 960.154 526.938 1140.17C542.328 1323.7 514.024 1528.08 496.34 1706.94C479.551 1876.03 458.859 2046.47 450.982 2219.16C444.099 2369.93 471.269 2505.42 476.669 2653.13C480.013 2744.59 470.485 2822.22 454.2 2905.38C435.285 3003.07 421.918 3105.68 414.41 3210.81C381.065 3677.77 437.518 4084.34 480.167 4512.31" stroke="url(#paint33_linear_1898_11165)" stroke-width="2" stroke-miterlimit="10"/>
<path d="M505.141 3.12744C500.594 220.002 437.762 404.279 455.46 626.696C469.815 807.028 516.32 965.503 530.493 1145.74C544.903 1328.95 516.95 1531.61 499.783 1710.1C483.568 1878.22 464.218 2048.15 458.384 2220.06C453.222 2370.8 477.971 2510.55 481.189 2659.35C483.148 2751.35 472.795 2829.63 456.747 2913.27C438.098 3009.84 426.064 3122.21 419.488 3226.33C395.933 3646.15 445.252 4095.44 486.102 4512.26" stroke="url(#paint34_linear_1898_11165)" stroke-width="2" stroke-miterlimit="10"/>
<path d="M512.416 3.19482C507.631 221.666 444.253 406.507 461.364 630.74C475.173 811.103 520.433 970.894 533.654 1151.35C547.043 1334.25 519.468 1535.16 502.874 1713.45C487.275 1880.66 469.297 2050 465.365 2221.13C461.896 2372.15 484.309 2515.85 485.246 2665.78C485.82 2758.31 474.655 2837.09 458.804 2921.38C440.77 3017.33 429.899 3119.19 424.498 3222.43C414.215 3419.11 423.727 3619.72 436.305 3814.77C451.401 4048.8 467.212 4282 491.514 4512.28" stroke="url(#paint35_linear_1898_11165)" stroke-width="2" stroke-miterlimit="10"/>
<path d="M519.398 3.25342C514.459 221.443 450.969 406.034 466.611 630.047C479.202 809.69 522.7 969.794 535.893 1148.84C549.226 1329.83 522.769 1526.7 506.792 1703.43C491.402 1874.27 474.208 2047.34 472.053 2222.22C470.136 2377.47 491.318 2528.75 488.842 2683.65C487.345 2777.15 473.69 2855.09 458.524 2940.8C442.77 3029.82 433.746 3123.82 429.479 3218.89C420.399 3421.23 433.788 3621.92 446.422 3821.85C461 4052.63 472.221 4285.47 496.593 4512.43" stroke="url(#paint36_linear_1898_11165)" stroke-width="2" stroke-miterlimit="10"/>
<path d="M526.071 3.28711C520.895 222.98 456.873 408.322 471.913 633.995C483.889 813.669 526.239 975.057 538.467 1154.39C550.723 1335 524.644 1530.3 509.184 1706.78C494.27 1876.81 478.405 2049.22 478.405 2223.2C478.405 2379.35 496.774 2533.98 492.088 2690.17C489.289 2783.79 474.851 2862.39 460.007 2948.75C444.813 3037.18 436.74 3130.56 433.55 3224.81C426.681 3427.81 444.351 3625.02 456.635 3824.92C470.724 4054.2 476.726 4287.01 501.405 4512.37" stroke="url(#paint37_linear_1898_11165)" stroke-width="2" stroke-miterlimit="10"/>
<path d="M532.422 3.34619C527.008 224.698 462.469 410.416 476.921 638C488.337 817.737 529.498 980.377 540.775 1159.96C552.121 1340.2 526.224 1533.96 511.268 1710.35C496.9 1879.44 482.461 2051.19 484.504 2224.26C486.365 2381.54 501.978 2539.2 495.109 2696.71C491.01 2790.46 475.802 2869.68 461.279 2956.61C446.631 3044.28 439.51 3137.22 437.397 3230.6C432.766 3434.13 454.634 3628.09 466.582 3827.93C480.209 4055.76 480.964 4288.23 505.952 4512.27" stroke="url(#paint38_linear_1898_11165)" stroke-width="2" stroke-miterlimit="10"/>
<path d="M538.453 3.41455C532.857 226.301 467.772 412.802 481.623 641.982C492.493 821.75 532.535 985.643 542.804 1165.51C553.073 1345.37 527.526 1537.57 513.088 1713.48C499.237 1882.17 486.155 2053.11 490.255 2225.23C494.032 2383.9 506.848 2544.25 497.824 2703.07C492.493 2797.01 476.46 2876.8 462.273 2964.54C448.087 3052.27 441.987 3144.02 440.923 3236.52C438.559 3440.06 464.526 3631.44 476.138 3831.06C489.317 4057.58 484.84 4289.86 510.191 4512.4" stroke="url(#paint39_linear_1898_11165)" stroke-width="2" stroke-miterlimit="10"/>
<path d="M544.161 3.44727C538.285 227.868 472.808 415.026 486.015 645.835C496.355 825.697 535.179 990.78 544.581 1170.89C553.94 1350.25 528.561 1541.26 514.612 1716.87C501.265 1885.05 489.555 2055.05 495.669 2226.33C501.391 2386.56 511.422 2549.29 500.286 2709.52C493.766 2803.18 476.893 2883.91 463.028 2972.27C449.429 3059.01 444.197 3150.76 444.155 3242.25C444.043 3445.79 473.983 3634.73 485.288 3834.07C498.075 4059.52 488.38 4291.24 514.137 4512.4" stroke="url(#paint40_linear_1898_11165)" stroke-width="2" stroke-miterlimit="10"/>
<path d="M549.52 3.47266C543.448 229.396 477.425 417.118 490.129 649.587C499.922 829.543 537.697 995.815 546.092 1176.15C554.486 1355.32 529.303 1544.42 515.844 1720.06C503.028 1887.89 492.633 2057.05 500.734 2227.33C508.429 2389.28 515.676 2554.11 502.469 2715.81C494.844 2809.44 477.117 2890.85 463.574 2979.87C450.451 3066.2 446.156 3157.17 447.107 3247.82C449.22 3451.04 482.993 3638.01 494.032 3837.07C506.456 4061.24 491.542 4292.36 517.816 4512.49" stroke="url(#paint41_linear_1898_11165)" stroke-width="2" stroke-miterlimit="10"/>
<path d="M554.542 3.53857C548.26 230.871 481.79 419.251 493.934 653.254C503.294 833.304 539.852 1000.83 547.449 1181.25C554.976 1360.05 529.834 1547.62 516.879 1723.16C504.553 1890.68 495.459 2058.99 505.504 2228.3C515.214 2392.07 519.719 2558.94 504.483 2721.76C495.739 2815.3 477.173 2897.4 463.91 2987.2C451.318 3073 447.848 3163.5 449.765 3253.37C454.06 3456.06 491.5 3641.43 502.3 3840.14C514.43 4063.25 494.34 4293.68 521.132 4512.75" stroke="url(#paint42_linear_1898_11165)" stroke-width="2" stroke-miterlimit="10"/>
<path d="M559.215 3.56543C552.737 232.151 485.791 421.219 497.446 656.725C506.372 836.869 541.824 1005.33 548.582 1186.17C555.241 1364.65 530.142 1550.84 517.634 1726.1C505.672 1893.4 497.949 2060.87 509.897 2229.17C521.65 2394.85 523.468 2563.22 506.26 2727.46C496.466 2820.8 477.061 2903.69 464.106 2994.09C451.878 3079.45 449.345 3169.44 452.172 3258.37C458.593 3460.34 499.488 3644.43 510.149 3842.77C522.055 4065.09 496.816 4294.58 524.252 4512.68" stroke="url(#paint43_linear_1898_11165)" stroke-width="2" stroke-miterlimit="10"/>
<path d="M563.51 3.59863C556.878 233.624 489.485 423.194 500.677 660.015C509.184 840.315 543.587 1009.81 549.519 1190.83C555.353 1369.04 530.254 1553.78 518.138 1728.89C506.567 1896.04 500.132 2062.68 513.94 2230.05C527.749 2397.42 526.938 2567.45 507.826 2732.97C497.068 2826.1 477.047 2909.8 464.147 3000.7C452.129 3085.24 450.618 3175.36 454.354 3263.2C462.748 3464.35 506.945 3647.41 517.466 3845.34C529.232 4066.69 498.886 4295.53 527.064 4512.68" stroke="url(#paint44_linear_1898_11165)" stroke-width="2" stroke-miterlimit="10"/>
<path d="M567.512 3.79248C560.74 235.071 492.899 425.047 503.658 663.277C511.759 843.515 545.126 1014.01 550.289 1195.25C555.354 1373.05 530.17 1556.61 518.404 1731.52C507.212 1898.58 501.993 2064.44 517.621 2230.84C533.528 2400.37 530.212 2571.4 509.226 2738.11C497.558 2831.05 476.782 2915.47 464.064 3006.9C452.354 3091.1 451.682 3180.75 456.173 3267.68C461.084 3362.53 472.333 3454.99 484.812 3546.05C498.257 3644.31 518.768 3745.42 524.196 3847.79C535.906 4068.39 500.524 4296.44 529.541 4512.72" stroke="url(#paint45_linear_1898_11165)" stroke-width="2" stroke-miterlimit="10"/>
<path d="M571.01 3.79248C564.126 236.198 495.851 426.519 506.247 666.127C514.081 846.521 546.526 1017.93 550.919 1199.39C555.27 1376.9 529.933 1559.14 518.46 1733.9C507.52 1900.96 503.532 2066.17 520.923 2231.59C538.943 2402.97 533.221 2575.13 510.416 2743.06C497.824 2835.59 476.418 2920.73 463.883 3012.63C452.452 3096.49 452.536 3185.73 457.797 3271.81C463.561 3366.47 475.789 3458.41 489.066 3548.93C503.364 3646.47 524.938 3747.74 530.408 3850.07C542.147 4069.98 501.797 4297.32 531.808 4512.75" stroke="url(#paint46_linear_1898_11165)" stroke-width="2" stroke-miterlimit="10"/>
<path d="M574.186 3.79248C567.19 237.263 498.51 428.085 508.597 668.725C516.18 849.245 547.645 1021.47 551.409 1203.08C555.088 1380.35 529.457 1561.37 518.278 1736C507.604 1903.09 504.735 2067.7 523.875 2232.16C543.979 2405.5 536.005 2578.45 511.451 2747.57C498.076 2839.75 476.012 2925.52 463.617 3017.89C452.424 3101.41 453.207 3190.12 459.154 3275.57C465.729 3370.01 478.88 3461.48 492.885 3551.53C507.953 3648.41 530.478 3749.81 536.033 3852.14C547.925 4071.33 502.665 4298.13 533.752 4512.84" stroke="url(#paint47_linear_1898_11165)" stroke-width="2" stroke-miterlimit="10"/>
<path d="M576.97 3.79248C569.974 238.233 500.818 429.368 510.668 671.043C518.041 851.782 548.638 1024.88 551.786 1206.68C554.864 1383.76 528.855 1563.65 517.901 1738.1C507.422 1905.25 505.617 2069.39 526.393 2232.84C548.652 2407.98 538.579 2581.36 512.402 2751.67C498.258 2843.54 475.621 2929.87 463.337 3022.62C452.326 3105.85 453.725 3194.25 460.301 3278.89C467.632 3373.2 481.623 3464.17 496.299 3553.82C512.094 3650.17 535.389 3751.62 541.069 3854.08C553.213 4072.83 503.154 4299.07 535.473 4512.84" stroke="url(#paint48_linear_1898_11165)" stroke-width="2" stroke-miterlimit="10"/>
<path d="M579.348 3.79248C572.352 239.142 502.762 430.464 512.458 673.078C519.677 853.848 549.463 1027.73 552.122 1209.69C554.654 1386.58 528.183 1565.28 517.383 1739.73C507.029 1906.97 506.19 2070.8 528.575 2233.31C552.961 2410.26 540.985 2583.74 513.185 2755.3C498.355 2846.77 475.2 2933.6 463.001 3026.69C452.116 3109.67 454.046 3197.63 461.182 3281.68C469.198 3375.87 483.945 3466.42 499.237 3555.7C515.676 3651.61 539.572 3752.97 545.406 3855.71C557.928 4073.99 503.154 4299.95 536.9 4512.87" stroke="url(#paint49_linear_1898_11165)" stroke-width="2" stroke-miterlimit="10"/>
<path d="M581.335 3.79248C574.34 237.983 504.75 428.679 513.774 669.884C520.895 860.487 553.06 1044.73 552.402 1237.06C551.842 1401.48 527.708 1566.47 517.327 1728.89C506.303 1901.46 506.61 2066.63 530.213 2233.75C556.319 2419.06 542.594 2592.69 511.549 2771.3C497.642 2851.37 478.671 2927.65 465.645 3008.31C451.864 3093.67 453.208 3187.39 460.861 3275.23C469.535 3374.89 486.044 3470.31 502.833 3564.31C519.817 3659.06 543.728 3759.79 549.324 3861.97C561.09 4078.03 503.001 4302.73 538.033 4512.84" stroke="url(#paint50_linear_1898_11165)" stroke-width="2" stroke-miterlimit="10"/>
<path d="M582.901 3.79248C576.004 238.64 505.952 429.337 514.99 671.199C522.126 861.865 553.535 1046.96 552.485 1239.22C551.576 1403.52 526.77 1567.66 516.375 1729.99C505.323 1902.68 506.414 2067.82 531.555 2234.13C559.872 2421.32 544.539 2594.04 511.968 2774.12C497.558 2853.81 478.418 2930.31 465.379 3011.19C451.584 3096.37 453.207 3189.68 461.294 3277.01C470.514 3376.62 487.736 3471.65 504.973 3565.37C522.377 3660 546.553 3760.7 552.429 3863.13C564.713 4078.78 502.273 4303.73 538.998 4512.87" stroke="url(#paint51_linear_1898_11165)" stroke-width="2" stroke-miterlimit="10"/>
<path d="M584.021 3.79248C577.235 239.11 506.764 429.65 515.942 672.201C523.161 862.898 553.898 1048.4 552.513 1240.91C551.338 1405.15 525.735 1568.51 515.256 1730.77C504.063 1903.56 505.84 2068.95 532.493 2234.19C562.964 2423.2 546.343 2594.54 512.402 2776.16C497.558 2855.66 478.222 2932.35 465.029 3013.29C451.164 3098.4 452.913 3190.9 461.378 3278.17C480.965 3479.79 542.286 3660.44 554.654 3864.01C567.735 4079.28 501.083 4304.83 539.656 4512.87" stroke="url(#paint52_linear_1898_11165)" stroke-width="2" stroke-miterlimit="10"/>
<path d="M584.729 3.79248C578.084 239.486 507.193 429.963 516.595 672.796C523.996 863.524 554.132 1049.65 552.523 1242.07C551.124 1406.34 524.625 1568.98 513.964 1731.18C502.604 1904.03 504.898 2069.99 532.992 2234.29C565.604 2424.95 548.018 2594.39 512.705 2777.72C497.553 2856.57 477.476 2933.44 464.801 3014.58C451.356 3100.75 452.447 3190.46 461.289 3278.67C481.548 3480.64 542.925 3660.28 556.188 3864.57C570.179 4079.56 499.456 4306.08 540.071 4512.75" stroke="url(#paint53_linear_1898_11165)" stroke-width="2" stroke-miterlimit="10"/>
<path d="M585 3.79248C578.55 239.736 507.239 429.869 516.991 672.953C524.644 863.681 554.276 1050.06 552.541 1242.85C551.058 1407.15 523.441 1569.16 512.528 1731.33C500.902 1904.18 503.574 2071.02 533.08 2234.35C567.819 2426.48 549.603 2593.54 512.948 2778.63C479.482 2947.72 441.385 3087.03 461 3278.51C481.748 3481.01 542.608 3659.81 556.934 3864.82C571.946 4079.56 497.404 4307.27 540.145 4513" stroke="url(#paint54_linear_1898_11165)" stroke-width="2" stroke-miterlimit="10"/>
</g>
<defs>
<linearGradient id="paint0_linear_1898_11165" x1="117.507" y1="1.00001" x2="117.506" y2="4510.08" gradientUnits="userSpaceOnUse">
<stop offset="0.28125" stop-color="#C18FFF"/>
<stop offset="0.494792" stop-color="#0CB6FF"/>
<stop offset="0.708333" stop-color="#27F09E"/>
</linearGradient>
<linearGradient id="paint1_linear_1898_11165" x1="135.369" y1="1.02442" x2="135.368" y2="4510.01" gradientUnits="userSpaceOnUse">
<stop offset="0.28125" stop-color="#C18FFF"/>
<stop offset="0.494792" stop-color="#0CB6FF"/>
<stop offset="0.708333" stop-color="#27F09E"/>
</linearGradient>
<linearGradient id="paint2_linear_1898_11165" x1="151.918" y1="1.09132" x2="151.917" y2="4510.11" gradientUnits="userSpaceOnUse">
<stop offset="0.28125" stop-color="#C18FFF"/>
<stop offset="0.494792" stop-color="#0CB6FF"/>
<stop offset="0.708333" stop-color="#27F09E"/>
</linearGradient>
<linearGradient id="paint3_linear_1898_11165" x1="167.398" y1="1.14747" x2="167.397" y2="4510.32" gradientUnits="userSpaceOnUse">
<stop offset="0.28125" stop-color="#C18FFF"/>
<stop offset="0.494792" stop-color="#0CB6FF"/>
<stop offset="0.708333" stop-color="#27F09E"/>
</linearGradient>
<linearGradient id="paint4_linear_1898_11165" x1="182.094" y1="1.17286" x2="182.094" y2="4510.25" gradientUnits="userSpaceOnUse">
<stop offset="0.28125" stop-color="#C18FFF"/>
<stop offset="0.494792" stop-color="#0CB6FF"/>
<stop offset="0.708333" stop-color="#27F09E"/>
</linearGradient>
<linearGradient id="paint5_linear_1898_11165" x1="194.765" y1="1.25245" x2="194.765" y2="4510.33" gradientUnits="userSpaceOnUse">
<stop offset="0.28125" stop-color="#C18FFF"/>
<stop offset="0.494792" stop-color="#0CB6FF"/>
<stop offset="0.708333" stop-color="#27F09E"/>
</linearGradient>
<linearGradient id="paint6_linear_1898_11165" x1="207.276" y1="1.30958" x2="207.276" y2="4510.42" gradientUnits="userSpaceOnUse">
<stop offset="0.28125" stop-color="#C18FFF"/>
<stop offset="0.494792" stop-color="#0CB6FF"/>
<stop offset="0.708333" stop-color="#27F09E"/>
</linearGradient>
<linearGradient id="paint7_linear_1898_11165" x1="219.134" y1="1.36915" x2="219.134" y2="4510.51" gradientUnits="userSpaceOnUse">
<stop offset="0.28125" stop-color="#C18FFF"/>
<stop offset="0.494792" stop-color="#0CB6FF"/>
<stop offset="0.708333" stop-color="#27F09E"/>
</linearGradient>
<linearGradient id="paint8_linear_1898_11165" x1="230.649" y1="1.43604" x2="230.648" y2="4510.39" gradientUnits="userSpaceOnUse">
<stop offset="0.28125" stop-color="#C18FFF"/>
<stop offset="0.494792" stop-color="#0CB6FF"/>
<stop offset="0.708333" stop-color="#27F09E"/>
</linearGradient>
<linearGradient id="paint9_linear_1898_11165" x1="241.619" y1="1.49415" x2="241.619" y2="4510.58" gradientUnits="userSpaceOnUse">
<stop offset="0.28125" stop-color="#C18FFF"/>
<stop offset="0.494792" stop-color="#0CB6FF"/>
<stop offset="0.708333" stop-color="#27F09E"/>
</linearGradient>
<linearGradient id="paint10_linear_1898_11165" x1="252.226" y1="1.55274" x2="252.225" y2="4510.76" gradientUnits="userSpaceOnUse">
<stop offset="0.28125" stop-color="#C18FFF"/>
<stop offset="0.494792" stop-color="#0CB6FF"/>
<stop offset="0.708333" stop-color="#27F09E"/>
</linearGradient>
<linearGradient id="paint11_linear_1898_11165" x1="262.465" y1="1.62061" x2="262.465" y2="4510.64" gradientUnits="userSpaceOnUse">
<stop offset="0.28125" stop-color="#C18FFF"/>
<stop offset="0.494792" stop-color="#0CB6FF"/>
<stop offset="0.708333" stop-color="#27F09E"/>
</linearGradient>
<linearGradient id="paint12_linear_1898_11165" x1="272.391" y1="1.67921" x2="272.391" y2="4510.76" gradientUnits="userSpaceOnUse">
<stop offset="0.28125" stop-color="#C18FFF"/>
<stop offset="0.494792" stop-color="#0CB6FF"/>
<stop offset="0.708333" stop-color="#27F09E"/>
</linearGradient>
<linearGradient id="paint13_linear_1898_11165" x1="282.54" y1="1.74659" x2="282.54" y2="4510.7" gradientUnits="userSpaceOnUse">
<stop offset="0.28125" stop-color="#C18FFF"/>
<stop offset="0.494792" stop-color="#0CB6FF"/>
<stop offset="0.708333" stop-color="#27F09E"/>
</linearGradient>
<linearGradient id="paint14_linear_1898_11165" x1="292.183" y1="1.80616" x2="292.182" y2="4510.79" gradientUnits="userSpaceOnUse">
<stop offset="0.28125" stop-color="#C18FFF"/>
<stop offset="0.494792" stop-color="#0CB6FF"/>
<stop offset="0.708333" stop-color="#27F09E"/>
</linearGradient>
<linearGradient id="paint15_linear_1898_11165" x1="302.282" y1="1.87061" x2="302.282" y2="4510.83" gradientUnits="userSpaceOnUse">
<stop offset="0.28125" stop-color="#C18FFF"/>
<stop offset="0.494792" stop-color="#0CB6FF"/>
<stop offset="0.708333" stop-color="#27F09E"/>
</linearGradient>
<linearGradient id="paint16_linear_1898_11165" x1="312.683" y1="1.93214" x2="312.683" y2="4511.14" gradientUnits="userSpaceOnUse">
<stop offset="0.28125" stop-color="#C18FFF"/>
<stop offset="0.494792" stop-color="#0CB6FF"/>
<stop offset="0.708333" stop-color="#27F09E"/>
</linearGradient>
<linearGradient id="paint17_linear_1898_11165" x1="323.419" y1="1.99024" x2="323.418" y2="4511.07" gradientUnits="userSpaceOnUse">
<stop offset="0.28125" stop-color="#C18FFF"/>
<stop offset="0.494792" stop-color="#0CB6FF"/>
<stop offset="0.708333" stop-color="#27F09E"/>
</linearGradient>
<linearGradient id="paint18_linear_1898_11165" x1="334.415" y1="2.08155" x2="334.414" y2="4511.16" gradientUnits="userSpaceOnUse">
<stop offset="0.28125" stop-color="#C18FFF"/>
<stop offset="0.494792" stop-color="#0CB6FF"/>
<stop offset="0.708333" stop-color="#27F09E"/>
</linearGradient>
<linearGradient id="paint19_linear_1898_11165" x1="345.22" y1="2.16017" x2="345.22" y2="4511.34" gradientUnits="userSpaceOnUse">
<stop offset="0.28125" stop-color="#C18FFF"/>
<stop offset="0.494792" stop-color="#0CB6FF"/>
<stop offset="0.708333" stop-color="#27F09E"/>
</linearGradient>
<linearGradient id="paint20_linear_1898_11165" x1="355.779" y1="2.21876" x2="355.779" y2="4511.3" gradientUnits="userSpaceOnUse">
<stop offset="0.28125" stop-color="#C18FFF"/>
<stop offset="0.494792" stop-color="#0CB6FF"/>
<stop offset="0.708333" stop-color="#27F09E"/>
</linearGradient>
<linearGradient id="paint21_linear_1898_11165" x1="366.156" y1="2.28565" x2="366.156" y2="4511.46" gradientUnits="userSpaceOnUse">
<stop offset="0.28125" stop-color="#C18FFF"/>
<stop offset="0.494792" stop-color="#0CB6FF"/>
<stop offset="0.708333" stop-color="#27F09E"/>
</linearGradient>
<linearGradient id="paint22_linear_1898_11165" x1="376.225" y1="2.34425" x2="376.225" y2="4511.43" gradientUnits="userSpaceOnUse">
<stop offset="0.28125" stop-color="#C18FFF"/>
<stop offset="0.494792" stop-color="#0CB6FF"/>
<stop offset="0.708333" stop-color="#27F09E"/>
</linearGradient>
<linearGradient id="paint23_linear_1898_11165" x1="386.124" y1="2.43702" x2="386.123" y2="4511.61" gradientUnits="userSpaceOnUse">
<stop offset="0.28125" stop-color="#C18FFF"/>
<stop offset="0.494792" stop-color="#0CB6FF"/>
<stop offset="0.708333" stop-color="#27F09E"/>
</linearGradient>
<linearGradient id="paint24_linear_1898_11165" x1="395.669" y1="2.50538" x2="395.668" y2="4511.56" gradientUnits="userSpaceOnUse">
<stop offset="0.28125" stop-color="#C18FFF"/>
<stop offset="0.494792" stop-color="#0CB6FF"/>
<stop offset="0.708333" stop-color="#27F09E"/>
</linearGradient>
<linearGradient id="paint25_linear_1898_11165" x1="405.018" y1="2.56397" x2="405.018" y2="4511.65" gradientUnits="userSpaceOnUse">
<stop offset="0.28125" stop-color="#C18FFF"/>
<stop offset="0.494792" stop-color="#0CB6FF"/>
<stop offset="0.708333" stop-color="#27F09E"/>
</linearGradient>
<linearGradient id="paint26_linear_1898_11165" x1="414.146" y1="2.63087" x2="414.145" y2="4511.65" gradientUnits="userSpaceOnUse">
<stop offset="0.28125" stop-color="#C18FFF"/>
<stop offset="0.494792" stop-color="#0CB6FF"/>
<stop offset="0.708333" stop-color="#27F09E"/>
</linearGradient>
<linearGradient id="paint27_linear_1898_11165" x1="422.881" y1="2.68946" x2="422.881" y2="4511.77" gradientUnits="userSpaceOnUse">
<stop offset="0.28125" stop-color="#C18FFF"/>
<stop offset="0.494792" stop-color="#0CB6FF"/>
<stop offset="0.708333" stop-color="#27F09E"/>
</linearGradient>
<linearGradient id="paint28_linear_1898_11165" x1="431.406" y1="2.75782" x2="431.406" y2="4511.84" gradientUnits="userSpaceOnUse">
<stop offset="0.28125" stop-color="#C18FFF"/>
<stop offset="0.494792" stop-color="#0CB6FF"/>
<stop offset="0.708333" stop-color="#27F09E"/>
</linearGradient>
<linearGradient id="paint29_linear_1898_11165" x1="439.507" y1="2.81642" x2="439.507" y2="4511.9" gradientUnits="userSpaceOnUse">
<stop offset="0.28125" stop-color="#C18FFF"/>
<stop offset="0.494792" stop-color="#0CB6FF"/>
<stop offset="0.708333" stop-color="#27F09E"/>
</linearGradient>
<linearGradient id="paint30_linear_1898_11165" x1="447.348" y1="2.8838" x2="447.348" y2="4511.97" gradientUnits="userSpaceOnUse">
<stop offset="0.28125" stop-color="#C18FFF"/>
<stop offset="0.494792" stop-color="#0CB6FF"/>
<stop offset="0.708333" stop-color="#27F09E"/>
</linearGradient>
<linearGradient id="paint31_linear_1898_11165" x1="454.775" y1="2.94191" x2="454.775" y2="4512.02" gradientUnits="userSpaceOnUse">
<stop offset="0.28125" stop-color="#C18FFF"/>
<stop offset="0.494792" stop-color="#0CB6FF"/>
<stop offset="0.708333" stop-color="#27F09E"/>
</linearGradient>
<linearGradient id="paint32_linear_1898_11165" x1="461.733" y1="3.0005" x2="461.733" y2="4511.86" gradientUnits="userSpaceOnUse">
<stop offset="0.28125" stop-color="#C18FFF"/>
<stop offset="0.494792" stop-color="#0CB6FF"/>
<stop offset="0.708333" stop-color="#27F09E"/>
</linearGradient>
<linearGradient id="paint33_linear_1898_11165" x1="468.405" y1="3.06935" x2="468.405" y2="4512.31" gradientUnits="userSpaceOnUse">
<stop offset="0.28125" stop-color="#C18FFF"/>
<stop offset="0.494792" stop-color="#0CB6FF"/>
<stop offset="0.708333" stop-color="#27F09E"/>
</linearGradient>
<linearGradient id="paint34_linear_1898_11165" x1="474.467" y1="3.12745" x2="474.466" y2="4512.26" gradientUnits="userSpaceOnUse">
<stop offset="0.28125" stop-color="#C18FFF"/>
<stop offset="0.494792" stop-color="#0CB6FF"/>
<stop offset="0.708333" stop-color="#27F09E"/>
</linearGradient>
<linearGradient id="paint35_linear_1898_11165" x1="479.19" y1="3.19484" x2="479.19" y2="4512.28" gradientUnits="userSpaceOnUse">
<stop offset="0.28125" stop-color="#C18FFF"/>
<stop offset="0.494792" stop-color="#0CB6FF"/>
<stop offset="0.708333" stop-color="#27F09E"/>
</linearGradient>
<linearGradient id="paint36_linear_1898_11165" x1="483.513" y1="3.25343" x2="483.512" y2="4512.43" gradientUnits="userSpaceOnUse">
<stop offset="0.28125" stop-color="#C18FFF"/>
<stop offset="0.494792" stop-color="#0CB6FF"/>
<stop offset="0.708333" stop-color="#27F09E"/>
</linearGradient>
<linearGradient id="paint37_linear_1898_11165" x1="487.314" y1="3.28712" x2="487.314" y2="4512.37" gradientUnits="userSpaceOnUse">
<stop offset="0.28125" stop-color="#C18FFF"/>
<stop offset="0.494792" stop-color="#0CB6FF"/>
<stop offset="0.708333" stop-color="#27F09E"/>
</linearGradient>
<linearGradient id="paint38_linear_1898_11165" x1="490.639" y1="3.3462" x2="490.638" y2="4512.27" gradientUnits="userSpaceOnUse">
<stop offset="0.28125" stop-color="#C18FFF"/>
<stop offset="0.494792" stop-color="#0CB6FF"/>
<stop offset="0.708333" stop-color="#27F09E"/>
</linearGradient>
<linearGradient id="paint39_linear_1898_11165" x1="493.435" y1="3.41456" x2="493.435" y2="4512.4" gradientUnits="userSpaceOnUse">
<stop offset="0.28125" stop-color="#C18FFF"/>
<stop offset="0.494792" stop-color="#0CB6FF"/>
<stop offset="0.708333" stop-color="#27F09E"/>
</linearGradient>
<linearGradient id="paint40_linear_1898_11165" x1="495.832" y1="3.44728" x2="495.832" y2="4512.4" gradientUnits="userSpaceOnUse">
<stop offset="0.28125" stop-color="#C18FFF"/>
<stop offset="0.494792" stop-color="#0CB6FF"/>
<stop offset="0.708333" stop-color="#27F09E"/>
</linearGradient>
<linearGradient id="paint41_linear_1898_11165" x1="498.704" y1="3.47267" x2="498.703" y2="4512.49" gradientUnits="userSpaceOnUse">
<stop offset="0.28125" stop-color="#C18FFF"/>
<stop offset="0.494792" stop-color="#0CB6FF"/>
<stop offset="0.708333" stop-color="#27F09E"/>
</linearGradient>
<linearGradient id="paint42_linear_1898_11165" x1="502.373" y1="3.53859" x2="502.373" y2="4512.75" gradientUnits="userSpaceOnUse">
<stop offset="0.28125" stop-color="#C18FFF"/>
<stop offset="0.494792" stop-color="#0CB6FF"/>
<stop offset="0.708333" stop-color="#27F09E"/>
</linearGradient>
<linearGradient id="paint43_linear_1898_11165" x1="505.647" y1="3.56544" x2="505.647" y2="4512.68" gradientUnits="userSpaceOnUse">
<stop offset="0.28125" stop-color="#C18FFF"/>
<stop offset="0.494792" stop-color="#0CB6FF"/>
<stop offset="0.708333" stop-color="#27F09E"/>
</linearGradient>
<linearGradient id="paint44_linear_1898_11165" x1="508.52" y1="3.59864" x2="508.52" y2="4512.68" gradientUnits="userSpaceOnUse">
<stop offset="0.28125" stop-color="#C18FFF"/>
<stop offset="0.494792" stop-color="#0CB6FF"/>
<stop offset="0.708333" stop-color="#27F09E"/>
</linearGradient>
<linearGradient id="paint45_linear_1898_11165" x1="511.062" y1="3.79249" x2="511.062" y2="4512.72" gradientUnits="userSpaceOnUse">
<stop offset="0.28125" stop-color="#C18FFF"/>
<stop offset="0.494792" stop-color="#0CB6FF"/>
<stop offset="0.708333" stop-color="#27F09E"/>
</linearGradient>
<linearGradient id="paint46_linear_1898_11165" x1="513.208" y1="3.79249" x2="513.207" y2="4512.75" gradientUnits="userSpaceOnUse">
<stop offset="0.28125" stop-color="#C18FFF"/>
<stop offset="0.494792" stop-color="#0CB6FF"/>
<stop offset="0.708333" stop-color="#27F09E"/>
</linearGradient>
<linearGradient id="paint47_linear_1898_11165" x1="515.062" y1="3.79249" x2="515.062" y2="4512.84" gradientUnits="userSpaceOnUse">
<stop offset="0.28125" stop-color="#C18FFF"/>
<stop offset="0.494792" stop-color="#0CB6FF"/>
<stop offset="0.708333" stop-color="#27F09E"/>
</linearGradient>
<linearGradient id="paint48_linear_1898_11165" x1="516.628" y1="3.79249" x2="516.628" y2="4512.84" gradientUnits="userSpaceOnUse">
<stop offset="0.28125" stop-color="#C18FFF"/>
<stop offset="0.494792" stop-color="#0CB6FF"/>
<stop offset="0.708333" stop-color="#27F09E"/>
</linearGradient>
<linearGradient id="paint49_linear_1898_11165" x1="517.889" y1="3.79249" x2="517.889" y2="4512.87" gradientUnits="userSpaceOnUse">
<stop offset="0.28125" stop-color="#C18FFF"/>
<stop offset="0.494792" stop-color="#0CB6FF"/>
<stop offset="0.708333" stop-color="#27F09E"/>
</linearGradient>
<linearGradient id="paint50_linear_1898_11165" x1="518.807" y1="3.79249" x2="518.807" y2="4512.84" gradientUnits="userSpaceOnUse">
<stop offset="0.28125" stop-color="#C18FFF"/>
<stop offset="0.494792" stop-color="#0CB6FF"/>
<stop offset="0.708333" stop-color="#27F09E"/>
</linearGradient>
<linearGradient id="paint51_linear_1898_11165" x1="519.569" y1="3.79249" x2="519.568" y2="4512.87" gradientUnits="userSpaceOnUse">
<stop offset="0.28125" stop-color="#C18FFF"/>
<stop offset="0.494792" stop-color="#0CB6FF"/>
<stop offset="0.708333" stop-color="#27F09E"/>
</linearGradient>
<linearGradient id="paint52_linear_1898_11165" x1="519.989" y1="3.79249" x2="519.989" y2="4512.87" gradientUnits="userSpaceOnUse">
<stop offset="0.28125" stop-color="#C18FFF"/>
<stop offset="0.494792" stop-color="#0CB6FF"/>
<stop offset="0.708333" stop-color="#27F09E"/>
</linearGradient>
<linearGradient id="paint53_linear_1898_11165" x1="520.272" y1="3.79249" x2="520.271" y2="4512.75" gradientUnits="userSpaceOnUse">
<stop offset="0.28125" stop-color="#C18FFF"/>
<stop offset="0.494792" stop-color="#0CB6FF"/>
<stop offset="0.708333" stop-color="#27F09E"/>
</linearGradient>
<linearGradient id="paint54_linear_1898_11165" x1="520.893" y1="3.79249" x2="520.893" y2="4513" gradientUnits="userSpaceOnUse">
<stop offset="0.28125" stop-color="#C18FFF"/>
<stop offset="0.494792" stop-color="#0CB6FF"/>
<stop offset="0.708333" stop-color="#27F09E"/>
</linearGradient>
</defs>
</svg>
