<svg width="586" height="4514" viewBox="0 0 586 4514" fill="none" xmlns="http://www.w3.org/2000/svg">
<g opacity="0.5">
<path d="M105.818 0.999994C106.294 171.312 100.362 356.904 114.213 524.367C137.311 803.053 194.268 1061.89 222.403 1337.76C232.49 1436.77 238.534 1534.46 219.955 1630.25C204.131 1711.66 175.856 1777.92 148.336 1840.27C99.5923 1950.68 34.1856 2067.26 28.0856 2233.94C24.1542 2341.53 49.7853 2446.46 72.3383 2537.36C97.9134 2640.38 127.182 2738.51 152.771 2841.5C175.744 2933.91 202.9 3043.41 197.024 3153.16C191.959 3247.73 163.768 3327.11 135.842 3394.55C81.1524 3526.6 -6.62549 3662.09 1.5311 3865.22C10.8769 4098.75 99.3544 4272.92 105.818 4510.08" stroke="url(#paint0_linear_3174_2949)" stroke-width="2" stroke-miterlimit="10"/>
<path d="M122.229 1.02429C123.096 172.056 115.611 357.085 130.427 525.142C154.561 798.881 212.455 1051.89 241.584 1322.72C252.371 1422.92 257.981 1518.05 239.275 1615.21C223.34 1698.1 195.358 1766.71 168.076 1831.34C119.864 1945.41 53.7999 2066.9 45.4754 2233.58C40.1309 2340.52 65.8319 2445.82 88.371 2535.94C113.82 2637.71 143.117 2734.37 168.594 2836.11C191.693 2928.33 218.639 3037.83 211.657 3147.42C205.655 3241.71 177.058 3322.25 149.441 3390.63C95.856 3523.37 9.72899 3662.77 17.6477 3863.46C26.8956 4097.56 115.877 4272.28 122.229 4510.01" stroke="url(#paint1_linear_3174_2949)" stroke-width="2" stroke-miterlimit="10"/>
<path d="M138.359 1.0913C139.394 173.094 129.825 357.622 145.508 526.713C170.384 794.878 229.033 1041.28 258.833 1306.41C270.222 1407.46 275.3 1500.36 256.833 1598.62C241.009 1682.79 213.755 1754.15 186.683 1821.2C139.115 1939.09 73.2881 2066.19 62.9489 2232.71C56.3593 2338.67 81.5286 2443.17 103.97 2532.47C129.153 2632.52 158.268 2727.14 183.437 2827.13C206.578 2919.06 232.755 3027.53 224.78 3136.63C217.868 3231 189.145 3312.98 161.821 3382.9C109.356 3517.39 25.3837 3661.37 33.1905 3860.52C42.3964 4095.65 131.951 4271.35 138.275 4510.11" stroke="url(#paint2_linear_3174_2949)" stroke-width="2" stroke-miterlimit="10"/>
<path d="M154.184 1.14746C155.178 174.34 143.076 358.774 159.557 529.055C184.894 791.082 244.145 1030.31 274.462 1289.21C286.341 1390.67 290.804 1481.82 272.868 1580.89C257.366 1666.56 230.895 1740.59 204.313 1810.23C157.598 1933.04 92.7228 2064.59 80.4809 2231.58C72.814 2336.29 96.892 2438.93 119.179 2527.36C143.859 2625.21 172.722 2717.43 197.429 2815.22C220.584 2906.81 245.46 3013.18 236.603 3121.62C228.839 3216.44 200.228 3300.11 173.281 3372.13C121.977 3509.31 40.5793 3658.42 48.3441 3856.51C57.62 4093.08 147.776 4270.12 154.142 4510.32" stroke="url(#paint3_linear_3174_2949)" stroke-width="2" stroke-miterlimit="10"/>
<path d="M169.701 1.17285C170.484 175.775 155.472 360.146 172.667 531.961C198.228 787.413 258.01 1019.04 288.496 1271.26C300.78 1372.65 305.649 1452.56 288.496 1552.14C273.906 1636.84 246.873 1725.96 221.102 1798.45C175.451 1926.83 112.129 2062.39 98.1239 2230.01C81.2091 2432.29 169.239 2636.7 210.735 2800.62C233.848 2891.87 257.003 2995.36 247.307 3102.86C238.675 3198.42 210.344 3283.85 183.803 3358.34C133.702 3499 55.2142 3653.69 63.021 3851.27C72.4228 4089.59 163.237 4268.33 169.7 4510.25" stroke="url(#paint4_linear_3174_2949)" stroke-width="2" stroke-miterlimit="10"/>
<path d="M184.894 1.25268C185.327 177.389 167.097 361.791 184.894 535.391C210.469 783.986 270.531 1007.62 301.115 1252.84C313.706 1353.88 315.015 1445.28 298.855 1545.14C284.459 1633.94 260.392 1712.13 235.085 1788.56C190.735 1922.52 131.351 2059.74 115.611 2228.21C97.0315 2427.42 182.515 2623.03 223.34 2783.92C245.879 2872.88 268.6 2976.59 256.988 3081.14C246.215 3178.21 220.094 3263.73 193.512 3342.45C144.684 3487.15 69.3718 3647.79 77.2625 3845.37C86.8462 4085.73 178.346 4266.38 184.991 4510.34" stroke="url(#paint5_linear_3174_2949)" stroke-width="2" stroke-miterlimit="10"/>
<path d="M199.794 1.30969C199.794 179.105 178.066 363.696 196.52 539.237C221.913 780.755 281.648 994.582 313.115 1240.58C365.986 1653.92 171.066 1862.39 133.711 2225.46C113.55 2421.17 195.219 2607.62 235.218 2765.6C257.604 2854.15 277.988 2953.85 265.718 3057.09C254.036 3155.38 228.489 3242.9 202.41 3324.79C154.842 3473.99 82.9571 3640.86 90.9738 3838.85C100.767 4081.43 192.98 4264.21 199.794 4510.42" stroke="url(#paint6_linear_3174_2949)" stroke-width="2" stroke-miterlimit="10"/>
<path d="M214.372 1.36901C213.784 180.887 188.489 365.791 207.488 543.43C232.546 777.745 293 984.944 323.15 1215.5C376.063 1620.29 190.238 1866.81 150.21 2224.03C128.636 2416.36 207.39 2590.93 246.62 2746.02C268.922 2834.2 286.62 2929.55 273.79 3031.32C261.199 3130.92 236.295 3220.67 210.762 3305.84C164.593 3459.84 96.1639 3633.06 104.362 3831.9C114.45 4076.86 207.334 4261.92 214.372 4510.51" stroke="url(#paint7_linear_3174_2949)" stroke-width="2" stroke-miterlimit="10"/>
<path d="M228.643 1.43591C227.453 182.739 198.465 368.018 217.94 547.88C242.536 775.025 303.059 973.738 332.804 1197.16C385.563 1593.36 209.895 1870.39 167.195 2221.81C144.25 2410.7 219.129 2573.4 257.589 2725.77C279.765 2813.63 294.623 2904.25 281.374 3004.45C267.957 3105.44 243.599 3197.5 218.695 3286.05C173.925 3445 109.064 3624.61 117.444 3824.45C127.839 4071.82 221.423 4259.33 228.698 4510.39" stroke="url(#paint8_linear_3174_2949)" stroke-width="2" stroke-miterlimit="10"/>
<path d="M242.604 1.49426C240.8 184.55 208.103 370.362 227.984 552.604C252.02 772.735 312.572 963.244 341.813 1179.46C394.264 1567.24 229.145 1873.89 183.885 2219.56C159.597 2405.02 230.488 2555.51 268.207 2705.28C290.243 2792.77 302.177 2878.98 288.452 2977.52C274.181 3079.91 250.439 3174.39 226.151 3266.26C182.78 3430.18 121.5 3616.12 130.091 3817.21C140.78 4067.18 235.021 4257 242.604 4510.58" stroke="url(#paint9_linear_3174_2949)" stroke-width="2" stroke-miterlimit="10"/>
<path d="M256.247 1.55273C253.84 186.3 217.52 372.738 237.737 557.078C261.143 770.445 321.681 952.906 350.348 1162.23C402.394 1542.34 248.02 1877.43 200.228 2217.49C174.625 2399.57 241.528 2537.82 278.576 2685.15C300.471 2772.26 309.481 2854.24 295.365 2950.9C280.227 3054.7 257.03 3151.55 233.414 3246.71C191.525 3415.46 133.702 3607.6 142.474 3810.07C153.457 4062.55 248.468 4254.71 256.219 4510.76" stroke="url(#paint10_linear_3174_2949)" stroke-width="2" stroke-miterlimit="10"/>
<path d="M269.594 1.62072C266.614 188.215 226.811 375.092 247.307 561.686C270.042 768.635 330.308 943.142 358.359 1145.96C409.929 1518.77 266.272 1880.66 215.948 2215.02C189.001 2394.06 252.428 2520.19 288.733 2665.49C310.419 2752.32 316.715 2830.01 302.193 2925.04C286.187 3030.19 263.452 3129.39 240.521 3227.65C200.074 3401.03 145.65 3599.09 154.646 3802.97C165.909 4057.82 261.605 4252.25 269.594 4510.64" stroke="url(#paint11_linear_3174_2949)" stroke-width="2" stroke-miterlimit="10"/>
<path d="M282.619 1.6792C279.149 190.027 236.071 377.436 256.778 566.129C278.732 765.964 339.119 931.988 366.717 1131.42C393.299 1322.28 365.792 1525.6 333.725 1703.86C302.792 1875.77 259.716 2038.91 231.664 2213.38C203.235 2390.18 263.451 2502.94 298.82 2647.13C345.759 2838.61 286.228 3034.73 247.628 3209.99C208.565 3387.56 157.387 3591.19 166.579 3796.42C178.08 4053.53 274.448 4250.08 282.632 4510.76" stroke="url(#paint12_linear_3174_2949)" stroke-width="2" stroke-miterlimit="10"/>
<path d="M295.35 1.74621C291.475 191.848 245.417 379.288 266.277 570.392C287.655 766.067 348.892 926.873 375.684 1118.32C402.182 1307.42 373.403 1515.81 344.037 1694.92C315.272 1870.3 276.505 2037.28 246.62 2211.73C216.736 2386.17 274 2488.07 308.865 2630.42C354.685 2817.54 290.677 3021.83 254.791 3194.05C217.016 3375.35 168.944 3584.15 178.261 3790.5C189.972 4049.62 286.984 4248.11 295.35 4510.7" stroke="url(#paint13_linear_3174_2949)" stroke-width="2" stroke-miterlimit="10"/>
<path d="M307.759 1.80627C303.562 193.693 254.93 380.976 275.916 574.303C296.636 765.313 357.062 920.25 383.337 1106.63C409.71 1294.28 382.106 1507.43 355.174 1687.36C328.437 1865.84 292.733 2036.12 261.016 2210.29C246.06 2292.45 245.444 2352.67 264.737 2432.11C280.421 2496.68 303.198 2551.29 318.994 2615.76C340.092 2701.78 339.504 2770.29 323.82 2860.38C304.947 2968.63 283.247 3074.09 262.163 3180.3C225.675 3364.64 180.401 3577.98 189.803 3785.27C201.639 4046.17 299.295 4246.32 307.759 4510.8" stroke="url(#paint14_linear_3174_2949)" stroke-width="2" stroke-miterlimit="10"/>
<path d="M319.877 1.87048C315.68 195.542 264.725 382.262 285.781 577.843C305.942 765.064 366.592 914.709 392.195 1097.33C418.372 1284.02 391.915 1501.08 367.012 1681.72C342.108 1862.37 308.25 2035.81 274.673 2209.41C259.157 2289.64 256.96 2348.28 276.156 2427.04C291.378 2489.48 313.847 2541.58 329.18 2603.86C350.251 2689.41 348.012 2756.86 331.811 2845.38C311.902 2954.16 290.244 3061.25 269.748 3169.47C234.407 3356.13 191.651 3573.63 201.081 3781.23C212.987 4043.57 311.23 4245.07 319.751 4510.83" stroke="url(#paint15_linear_3174_2949)" stroke-width="2" stroke-miterlimit="10"/>
<path d="M331.655 1.93176C327.57 197.419 274.853 383.074 295.965 580.848C315.678 765.282 376.79 910.261 401.637 1090.34C427.394 1276.78 402.141 1496.19 379.014 1677.96C355.719 1861.21 323.275 2036.15 287.85 2209.03C271.761 2287.63 268.375 2345.62 287.571 2423.78C302.471 2484.53 324.8 2534.53 339.84 2595.09C360.98 2680.23 357.552 2747.62 340.735 2834.79C319.749 2943.73 298.036 3052.08 277.973 3161.95C243.654 3349.83 203.108 3570.96 212.468 3778.41C224.36 4041.79 323.163 4244.26 331.655 4511.14" stroke="url(#paint16_linear_3174_2949)" stroke-width="2" stroke-miterlimit="10"/>
<path d="M343.142 1.99023C339.435 199.263 285.445 383.321 306.612 583.286C325.934 765.81 387.311 907.658 411.865 1085.58C437.496 1271.42 412.788 1493.71 391.102 1675.96C369.067 1861.08 337.504 2036.81 300.163 2208.87C283.374 2286.19 279.316 2344.49 298.638 2422.24C313.426 2481.74 335.769 2530.18 350.697 2589.58C372.019 2674.4 367.99 2742.73 350.403 2828.87C328.214 2937.59 306.347 3046.75 286.62 3157.85C253.168 3346.29 214.441 3569.99 223.661 3776.59C235.427 4040.59 334.762 4243.57 343.142 4511.07" stroke="url(#paint17_linear_3174_2949)" stroke-width="2" stroke-miterlimit="10"/>
<path d="M354.335 2.08166C351.005 200.356 296.427 383.13 317.791 584.317C337.099 766.215 398.42 907.217 422.834 1084.57C448.381 1270.23 423.17 1493.52 401.946 1675.83C380.316 1861.61 348.991 2036.77 311.481 2209.06C294.693 2286.09 293.183 2344.76 312.378 2421.98C327.069 2481.07 347.228 2529.64 361.96 2588.73C383.03 2673.27 379.113 2742.85 361.023 2828.18C338.078 2936.43 316.042 3045.71 296.511 3157.28C263.675 3344.81 225.382 3571.43 234.952 3776.43C247.236 4040.06 344.891 4244.35 354.293 4511.16" stroke="url(#paint18_linear_3174_2949)" stroke-width="2" stroke-miterlimit="10"/>
<path d="M365.346 2.16015C362.184 200.873 307.243 383.115 328.858 584.771C348.333 766.387 409.137 908.11 433.397 1085.59C458.776 1271.25 432.46 1494.04 411.096 1676.06C389.354 1861.25 357.68 2035.65 321.948 2209.13C286.903 2379.26 341.823 2454.39 372.567 2589.96C392.839 2674.5 389.55 2744.53 371.39 2829.07C348.235 2936.85 326.256 3045.95 306.949 3157.49C274.686 3343.92 236.211 3573.48 246.593 3777.01C259.996 4039.51 353.678 4246.3 365.136 4511.34" stroke="url(#paint19_linear_3174_2949)" stroke-width="2" stroke-miterlimit="10"/>
<path d="M376.188 2.21862C373.138 201.526 317.791 383.33 339.589 585.612C359.176 767.228 419.336 909.515 443.372 1087.09C468.555 1272.75 441.231 1494.88 419.798 1676.62C398.042 1861.09 366.913 2034.84 332.985 2209.32C301.31 2372.15 352.39 2456.44 383.352 2591.78C402.743 2676.32 399.161 2746.97 380.973 2830.76C357.693 2938.04 335.881 3046.82 316.91 3158.33C285.304 3344.01 247.236 3575.85 258.316 3777.7C272.643 4038.88 362.254 4248.21 375.531 4511.3" stroke="url(#paint20_linear_3174_2949)" stroke-width="2" stroke-miterlimit="10"/>
<path d="M386.836 2.28576C383.87 202.282 328.075 383.804 349.97 586.838C369.529 768.235 429.004 911.367 452.788 1089.07C477.552 1274.72 449.542 1496.14 428.095 1677.54C406.409 1861.12 375.517 2034.5 343.465 2209.61C313.902 2371.28 363.849 2458.45 393.37 2594.13C411.795 2678.9 408.214 2750.07 390.04 2833.24C366.717 2939.92 345.157 3048.48 326.634 3159.8C295.784 3345.02 258.653 3578.27 270.307 3778.74C285.403 4038.64 370.802 4250.37 385.717 4511.46" stroke="url(#paint21_linear_3174_2949)" stroke-width="2" stroke-miterlimit="10"/>
<path d="M397.3 2.34411C394.362 203.186 338.133 384.364 360.043 588.431C379.49 769.671 438.293 913.68 461.601 1091.54C485.931 1277.13 457.292 1497.42 435.914 1678.75C414.369 1861.34 383.799 2034.19 353.677 2210.01C326.185 2370.46 374.817 2460.7 402.742 2597.01C420.175 2682.05 416.467 2753.79 398.349 2836.43C374.908 2942.28 354.05 3050.89 335.867 3161.8C305.87 3346.86 270.11 3580.77 282.296 3780.08C298.008 4038.29 379.098 4252.62 395.425 4511.43" stroke="url(#paint22_linear_3174_2949)" stroke-width="2" stroke-miterlimit="10"/>
<path d="M407.57 2.43689C404.632 204.187 347.913 385.302 369.795 590.371C389.088 771.455 447.108 916.434 469.941 1094.51C493.725 1280.04 464.638 1499.39 443.358 1680.38C422.036 1862 391.886 2034.37 363.723 2210.6C338.26 2369.86 385.451 2463.36 411.683 2600.48C428.038 2685.94 424.121 2758.21 406.087 2840.37C382.801 2945.59 362.334 3053.81 344.793 3164.46C315.735 3349.62 281.919 3583.49 294.427 3781.74C310.614 4038.29 387.269 4255.07 404.87 4511.61" stroke="url(#paint23_linear_3174_2949)" stroke-width="2" stroke-miterlimit="10"/>
<path d="M417.614 2.50549C414.662 205.289 357.454 386.372 379.168 592.6C398.223 773.559 455.403 919.571 477.691 1097.71C500.887 1283.15 471.451 1501.34 450.353 1682.17C429.366 1862.44 399.692 2034.76 373.529 2211.17C350.067 2369.3 395.649 2466.25 420.105 2604.31C435.326 2690.23 431.115 2763.07 413.109 2844.89C390.046 2949.38 370.039 3057.11 353.215 3167.41C325.233 3352.88 293.67 3586.04 306.472 3783.43C322.981 4038.2 395.117 4257.33 413.795 4511.56" stroke="url(#paint24_linear_3174_2949)" stroke-width="2" stroke-miterlimit="10"/>
<path d="M427.464 2.56384C424.442 206.475 366.688 387.715 388.29 595.132C407.009 775.965 463.28 923.043 484.966 1101.37C507.491 1286.68 477.845 1503.68 456.984 1684.11C436.278 1863.12 407.275 2035.25 383.127 2211.73C361.651 2368.77 405.512 2469.34 428.093 2608.44C442.084 2694.89 437.551 2768.29 419.699 2849.86C396.909 2953.66 377.437 3060.95 361.427 3170.91C334.523 3356.98 305.632 3588.82 318.658 3785.5C335.447 4038.41 402.896 4259.79 422.539 4511.65" stroke="url(#paint25_linear_3174_2949)" stroke-width="2" stroke-miterlimit="10"/>
<path d="M437.09 2.63098C433.984 207.763 375.671 388.972 396.979 597.924C415.418 778.632 470.738 926.868 491.752 1105.38C513.535 1290.54 483.791 1506.19 463.197 1686.37C442.868 1864.13 414.593 2036.1 392.488 2212.43C372.9 2368.4 414.971 2472.83 435.607 2613.01C448.408 2700.06 443.386 2774.03 425.813 2855.41C403.369 2958.48 384.492 3065.26 369.347 3174.8C343.674 3361.58 317.763 3591.55 330.942 3787.66C347.731 4038.7 410.549 4262.18 431.004 4511.65" stroke="url(#paint26_linear_3174_2949)" stroke-width="2" stroke-miterlimit="10"/>
<path d="M446.478 2.68945C443.26 209.105 384.387 390.502 405.401 600.769C423.408 781.571 477.776 930.966 498.062 1109.7C519.048 1294.67 489.318 1508.82 469.031 1688.99C449.136 1865.44 421.673 2037.29 401.624 2213.42C383.982 2368.33 424.093 2476.83 442.687 2618.18C454.215 2705.85 448.703 2780.35 431.214 2861.67C409.164 2963.99 390.946 3070.24 376.748 3179.31C352.39 3366.81 329.669 3594.46 343.003 3790.13C359.889 4039.19 417.811 4264.68 438.965 4511.77" stroke="url(#paint27_linear_3174_2949)" stroke-width="2" stroke-miterlimit="10"/>
<path d="M455.586 2.75793C452.27 210.458 392.837 392.073 413.501 604.188C431.102 784.708 484.406 935.355 503.924 1114.28C524.084 1299.03 494.424 1511.7 474.543 1691.47C455.124 1866.64 428.569 2038.36 410.563 2214.12C394.782 2368.05 432.948 2480.84 449.402 2623.29C459.629 2711.59 453.599 2786.68 436.236 2868.03C414.627 2969.58 397.12 3075.26 383.925 3183.79C360.98 3372.51 341.813 3597.34 355.118 3792.7C371.907 4039.83 424.96 4267.1 446.715 4511.84" stroke="url(#paint28_linear_3174_2949)" stroke-width="2" stroke-miterlimit="10"/>
<path d="M464.539 2.81653C461.028 212.019 401.021 393.979 421.294 607.597C438.404 788.086 490.646 940.048 509.352 1119.1C528.617 1303.69 499.124 1514.77 479.579 1694.29C460.65 1868.14 435.103 2039.73 419.139 2215.02C405.148 2368.05 441.259 2485.29 455.515 2628.79C464.399 2717.75 457.726 2793.41 440.601 2874.88C419.476 2975.66 402.727 3080.75 390.584 3188.7C369.15 3378.59 353.662 3600.28 366.982 3795.39C383.701 4040.57 431.689 4269.47 453.948 4511.9" stroke="url(#paint29_linear_3174_2949)" stroke-width="2" stroke-miterlimit="10"/>
<path d="M473.199 2.88366C469.506 213.589 408.926 395.863 428.751 611.265C445.358 791.597 496.494 944.781 514.346 1124.14C532.702 1308.48 503.419 1517.94 484.308 1697.17C465.91 1869.77 441.44 2041.15 427.519 2215.87C415.389 2368.12 449.317 2489.89 461.447 2634.5C468.96 2724.08 461.629 2800.27 444.658 2882.03C424.059 2982.02 408.118 3086.5 397.089 3193.81C377.279 3384.82 365.638 3603.14 378.901 3798.15C395.425 4041.42 438.348 4271.76 461.055 4511.97" stroke="url(#paint30_linear_3174_2949)" stroke-width="2" stroke-miterlimit="10"/>
<path d="M481.595 2.94201C477.705 215.119 416.552 397.863 435.901 614.925C451.976 795.288 501.979 949.755 518.95 1129.34C536.34 1313.43 507.352 1521.22 488.688 1700.33C470.822 1871.71 447.527 2042.83 435.635 2217C425.296 2368.58 457.013 2494.99 466.904 2640.63C473.046 2730.87 465.016 2807.59 448.297 2889.66C428.23 2988.88 413.113 3092.75 403.218 3199.38C385.128 3391.67 377.461 3606.26 390.627 3801.22C406.94 4042.33 444.687 4274.05 467.772 4512.02" stroke="url(#paint31_linear_3174_2949)" stroke-width="2" stroke-miterlimit="10"/>
<path d="M489.724 3.00049C485.625 216.712 423.967 399.925 442.729 618.772C458.245 799.135 507.114 954.887 523.162 1134.69C539.531 1318.53 510.906 1524.63 492.718 1703.52C475.411 1873.74 453.362 2044.55 443.484 2217.96C434.88 2369.02 464.345 2500.03 471.998 2646.61C476.74 2737.41 467.982 2814.73 451.473 2897.11C431.978 2995.56 417.726 3098.8 409.011 3204.7C392.74 3398.21 389.116 3609.01 402.184 3803.97C418.217 4043.33 450.746 4275.95 474.166 4511.86" stroke="url(#paint32_linear_3174_2949)" stroke-width="2" stroke-miterlimit="10"/>
<path d="M497.557 3.06897C493.248 218.346 430.961 402.092 449.233 622.692C464.189 803.024 511.884 960.153 526.938 1140.17C542.328 1323.7 514.024 1528.08 496.34 1706.94C479.551 1876.03 458.859 2046.47 450.982 2219.16C444.099 2369.93 471.269 2505.42 476.669 2653.13C480.013 2744.59 470.485 2822.22 454.2 2905.38C435.285 3003.07 421.918 3105.68 414.41 3210.81C381.065 3677.77 437.518 4084.34 480.167 4512.31" stroke="url(#paint33_linear_3174_2949)" stroke-width="2" stroke-miterlimit="10"/>
<path d="M505.141 3.12768C500.594 220.002 437.762 404.279 455.46 626.696C469.815 807.028 516.32 965.504 530.493 1145.74C544.903 1328.95 516.95 1531.61 499.783 1710.1C483.568 1878.22 464.218 2048.15 458.384 2220.06C453.222 2370.8 477.971 2510.55 481.189 2659.35C483.148 2751.35 472.795 2829.63 456.747 2913.27C438.098 3009.84 426.064 3122.21 419.488 3226.33C395.933 3646.15 445.252 4095.44 486.102 4512.26" stroke="url(#paint34_linear_3174_2949)" stroke-width="2" stroke-miterlimit="10"/>
<path d="M512.415 3.1947C507.63 221.666 444.252 406.507 461.363 630.74C475.172 811.103 520.432 970.894 533.653 1151.35C547.042 1334.25 519.467 1535.16 502.874 1713.45C487.274 1880.66 469.296 2050 465.364 2221.13C461.895 2372.15 484.308 2515.85 485.245 2665.78C485.819 2758.31 474.654 2837.09 458.803 2921.39C440.769 3017.33 429.898 3119.19 424.497 3222.43C414.214 3419.11 423.726 3619.72 436.304 3814.77C451.4 4048.8 467.211 4282 491.513 4512.28" stroke="url(#paint35_linear_3174_2949)" stroke-width="2" stroke-miterlimit="10"/>
<path d="M519.397 3.25317C514.458 221.443 450.968 406.033 466.61 630.047C479.201 809.69 522.699 969.794 535.892 1148.84C549.225 1329.83 522.768 1526.7 506.791 1703.43C491.401 1874.27 474.207 2047.34 472.052 2222.22C470.135 2377.47 491.317 2528.75 488.841 2683.65C487.344 2777.15 473.689 2855.09 458.523 2940.8C442.769 3029.82 433.745 3123.82 429.478 3218.89C420.398 3421.23 433.787 3621.92 446.421 3821.85C460.999 4052.63 472.22 4285.47 496.592 4512.43" stroke="url(#paint36_linear_3174_2949)" stroke-width="2" stroke-miterlimit="10"/>
<path d="M526.071 3.28735C520.895 222.98 456.873 408.322 471.913 633.995C483.889 813.67 526.239 975.057 538.467 1154.39C550.723 1335 524.644 1530.3 509.184 1706.78C494.27 1876.81 478.405 2049.22 478.405 2223.2C478.405 2379.35 496.774 2533.98 492.088 2690.17C489.289 2783.79 474.851 2862.39 460.007 2948.75C444.813 3037.18 436.74 3130.56 433.55 3224.81C426.681 3427.81 444.351 3625.02 456.635 3824.92C470.724 4054.2 476.726 4287.01 501.405 4512.37" stroke="url(#paint37_linear_3174_2949)" stroke-width="2" stroke-miterlimit="10"/>
<path d="M532.423 3.34595C527.009 224.698 462.47 410.416 476.922 637.999C488.338 817.736 529.499 980.377 540.776 1159.96C552.122 1340.2 526.225 1533.96 511.269 1710.35C496.901 1879.44 482.462 2051.19 484.505 2224.26C486.366 2381.54 501.979 2539.2 495.11 2696.71C491.011 2790.46 475.803 2869.68 461.28 2956.61C446.632 3044.28 439.511 3137.22 437.398 3230.6C432.767 3434.13 454.635 3628.09 466.583 3827.93C480.21 4055.76 480.965 4288.23 505.953 4512.27" stroke="url(#paint38_linear_3174_2949)" stroke-width="2" stroke-miterlimit="10"/>
<path d="M538.454 3.41443C532.858 226.301 467.773 412.802 481.624 641.982C492.494 821.75 532.536 985.643 542.805 1165.51C553.074 1345.37 527.527 1537.57 513.089 1713.48C499.238 1882.17 486.156 2053.11 490.256 2225.23C494.033 2383.9 506.849 2544.25 497.825 2703.07C492.494 2797.01 476.461 2876.8 462.274 2964.54C448.088 3052.27 441.988 3144.02 440.924 3236.52C438.56 3440.06 464.527 3631.44 476.139 3831.06C489.318 4057.58 484.841 4289.86 510.192 4512.4" stroke="url(#paint39_linear_3174_2949)" stroke-width="2" stroke-miterlimit="10"/>
<path d="M544.161 3.44714C538.285 227.868 472.808 415.026 486.015 645.835C496.355 825.697 535.179 990.78 544.581 1170.89C553.94 1350.25 528.561 1541.26 514.612 1716.87C501.265 1885.05 489.555 2055.05 495.669 2226.33C501.391 2386.56 511.422 2549.29 500.286 2709.52C493.766 2803.18 476.893 2883.91 463.028 2972.27C449.429 3059.01 444.197 3150.76 444.155 3242.25C444.043 3445.79 473.983 3634.73 485.288 3834.07C498.075 4059.52 488.38 4291.24 514.137 4512.4" stroke="url(#paint40_linear_3174_2949)" stroke-width="2" stroke-miterlimit="10"/>
<path d="M549.52 3.4729C543.448 229.397 477.425 417.119 490.129 649.587C499.922 829.543 537.697 995.816 546.092 1176.15C554.486 1355.32 529.303 1544.42 515.844 1720.06C503.028 1887.89 492.633 2057.05 500.734 2227.33C508.429 2389.28 515.676 2554.11 502.469 2715.81C494.844 2809.44 477.117 2890.85 463.574 2979.87C450.451 3066.2 446.156 3157.17 447.107 3247.82C449.22 3451.04 482.993 3638.01 494.032 3837.07C506.456 4061.24 491.542 4292.36 517.816 4512.49" stroke="url(#paint41_linear_3174_2949)" stroke-width="2" stroke-miterlimit="10"/>
<path d="M554.543 3.53845C548.261 230.871 481.791 419.251 493.935 653.253C503.295 833.304 539.853 1000.83 547.45 1181.25C554.977 1360.05 529.835 1547.62 516.88 1723.16C504.554 1890.68 495.46 2058.99 505.505 2228.3C515.215 2392.07 519.72 2558.94 504.484 2721.76C495.74 2815.3 477.174 2897.4 463.911 2987.2C451.319 3073 447.849 3163.5 449.766 3253.37C454.061 3456.06 491.501 3641.43 502.301 3840.14C514.431 4063.25 494.341 4293.68 521.133 4512.75" stroke="url(#paint42_linear_3174_2949)" stroke-width="2" stroke-miterlimit="10"/>
<path d="M559.215 3.56567C552.737 232.151 485.791 421.22 497.446 656.725C506.372 836.869 541.824 1005.33 548.582 1186.17C555.241 1364.65 530.142 1550.84 517.634 1726.1C505.672 1893.4 497.949 2060.87 509.897 2229.17C521.65 2394.85 523.468 2563.22 506.26 2727.46C496.466 2820.8 477.061 2903.69 464.106 2994.09C451.878 3079.45 449.345 3169.44 452.172 3258.37C458.593 3460.34 499.488 3644.43 510.149 3842.77C522.055 4065.09 496.816 4294.58 524.252 4512.68" stroke="url(#paint43_linear_3174_2949)" stroke-width="2" stroke-miterlimit="10"/>
<path d="M563.51 3.59839C556.878 233.624 489.485 423.194 500.677 660.014C509.184 840.315 543.587 1009.81 549.519 1190.83C555.353 1369.04 530.254 1553.78 518.138 1728.89C506.567 1896.03 500.132 2062.68 513.94 2230.05C527.749 2397.42 526.938 2567.45 507.826 2732.97C497.068 2826.1 477.047 2909.8 464.147 3000.7C452.129 3085.24 450.618 3175.36 454.354 3263.2C462.748 3464.35 506.945 3647.41 517.466 3845.34C529.232 4066.69 498.886 4295.52 527.064 4512.68" stroke="url(#paint44_linear_3174_2949)" stroke-width="2" stroke-miterlimit="10"/>
<path d="M567.512 3.79236C560.74 235.071 492.899 425.047 503.658 663.277C511.759 843.515 545.126 1014.01 550.289 1195.25C555.354 1373.05 530.17 1556.61 518.404 1731.52C507.212 1898.58 501.993 2064.44 517.621 2230.84C533.528 2400.37 530.212 2571.4 509.226 2738.11C497.558 2831.05 476.782 2915.47 464.064 3006.9C452.354 3091.11 451.682 3180.75 456.173 3267.68C461.084 3362.53 472.333 3454.99 484.812 3546.05C498.257 3644.31 518.768 3745.42 524.196 3847.79C535.906 4068.39 500.524 4296.44 529.541 4512.72" stroke="url(#paint45_linear_3174_2949)" stroke-width="2" stroke-miterlimit="10"/>
<path d="M571.01 3.79236C564.126 236.198 495.851 426.519 506.247 666.127C514.081 846.521 546.526 1017.93 550.919 1199.39C555.27 1376.9 529.933 1559.14 518.46 1733.9C507.52 1900.96 503.532 2066.17 520.923 2231.59C538.943 2402.97 533.221 2575.13 510.416 2743.06C497.824 2835.59 476.418 2920.73 463.883 3012.63C452.452 3096.49 452.536 3185.73 457.797 3271.81C463.561 3366.47 475.789 3458.41 489.066 3548.93C503.364 3646.47 524.938 3747.74 530.408 3850.07C542.147 4069.98 501.797 4297.32 531.808 4512.75" stroke="url(#paint46_linear_3174_2949)" stroke-width="2" stroke-miterlimit="10"/>
<path d="M574.186 3.79236C567.19 237.263 498.51 428.084 508.597 668.725C516.18 849.245 547.645 1021.47 551.409 1203.08C555.088 1380.35 529.457 1561.37 518.278 1736C507.604 1903.09 504.735 2067.7 523.875 2232.16C543.979 2405.5 536.005 2578.45 511.451 2747.57C498.076 2839.75 476.012 2925.52 463.617 3017.89C452.424 3101.41 453.207 3190.12 459.154 3275.57C465.729 3370.01 478.88 3461.48 492.885 3551.53C507.953 3648.41 530.478 3749.81 536.033 3852.14C547.925 4071.33 502.665 4298.13 533.752 4512.84" stroke="url(#paint47_linear_3174_2949)" stroke-width="2" stroke-miterlimit="10"/>
<path d="M576.969 3.79236C569.973 238.233 500.817 429.368 510.667 671.042C518.04 851.782 548.637 1024.88 551.785 1206.68C554.863 1383.76 528.855 1563.65 517.9 1738.1C507.421 1905.25 505.616 2069.39 526.392 2232.84C548.651 2407.98 538.578 2581.36 512.401 2751.67C498.257 2843.54 475.62 2929.87 463.336 3022.62C452.325 3105.85 453.724 3194.25 460.3 3278.89C467.631 3373.2 481.622 3464.17 496.298 3553.82C512.094 3650.17 535.388 3751.62 541.068 3854.08C553.212 4072.83 503.153 4299.07 535.472 4512.84" stroke="url(#paint48_linear_3174_2949)" stroke-width="2" stroke-miterlimit="10"/>
<path d="M579.348 3.79236C572.352 239.141 502.762 430.464 512.458 673.078C519.677 853.848 549.463 1027.73 552.122 1209.69C554.654 1386.58 528.183 1565.28 517.383 1739.73C507.029 1906.97 506.19 2070.8 528.575 2233.31C552.961 2410.26 540.985 2583.74 513.185 2755.3C498.355 2846.77 475.2 2933.6 463.001 3026.69C452.116 3109.67 454.046 3197.63 461.182 3281.68C469.198 3375.87 483.945 3466.42 499.237 3555.7C515.676 3651.61 539.572 3752.97 545.406 3855.71C557.928 4073.99 503.154 4299.95 536.9 4512.87" stroke="url(#paint49_linear_3174_2949)" stroke-width="2" stroke-miterlimit="10"/>
<path d="M581.334 3.79236C574.339 237.983 504.749 428.679 513.773 669.884C520.894 860.487 553.059 1044.73 552.401 1237.06C551.841 1401.48 527.707 1566.47 517.326 1728.89C506.302 1901.46 506.609 2066.63 530.212 2233.75C556.318 2419.06 542.593 2592.69 511.548 2771.3C497.641 2851.37 478.67 2927.65 465.644 3008.31C451.864 3093.67 453.207 3187.39 460.86 3275.22C469.534 3374.89 486.043 3470.31 502.832 3564.31C519.817 3659.06 543.727 3759.79 549.323 3861.97C561.089 4078.03 503 4302.73 538.032 4512.84" stroke="url(#paint50_linear_3174_2949)" stroke-width="2" stroke-miterlimit="10"/>
<path d="M582.902 3.79236C576.005 238.64 505.953 429.337 514.991 671.199C522.127 861.864 553.536 1046.96 552.486 1239.22C551.577 1403.52 526.771 1567.66 516.376 1729.99C505.324 1902.68 506.415 2067.82 531.556 2234.13C559.873 2421.32 544.54 2594.04 511.969 2774.12C497.559 2853.81 478.419 2930.31 465.38 3011.19C451.585 3096.36 453.208 3189.68 461.295 3277.01C470.515 3376.62 487.737 3471.65 504.974 3565.37C522.378 3660 546.554 3760.7 552.43 3863.13C564.714 4078.78 502.274 4303.73 538.999 4512.87" stroke="url(#paint51_linear_3174_2949)" stroke-width="2" stroke-miterlimit="10"/>
<path d="M584.021 3.79236C577.236 239.11 506.765 429.65 515.942 672.201C523.162 862.898 553.899 1048.4 552.514 1240.91C551.339 1405.15 525.736 1568.51 515.257 1730.77C504.064 1903.56 505.841 2068.95 532.493 2234.19C562.965 2423.2 546.344 2594.54 512.403 2776.16C497.559 2855.66 478.223 2932.35 465.03 3013.29C451.165 3098.4 452.914 3190.9 461.378 3278.17C480.966 3479.79 542.287 3660.44 554.655 3864C567.736 4079.28 501.084 4304.83 539.657 4512.87" stroke="url(#paint52_linear_3174_2949)" stroke-width="2" stroke-miterlimit="10"/>
<path d="M584.73 3.79236C578.085 239.486 507.194 429.963 516.596 672.796C523.997 863.524 554.133 1049.65 552.524 1242.07C551.125 1406.34 524.626 1568.98 513.965 1731.18C502.605 1904.03 504.899 2069.99 532.993 2234.29C565.605 2424.95 548.019 2594.39 512.706 2777.72C497.554 2856.57 477.477 2933.44 464.802 3014.58C451.357 3100.75 452.448 3190.46 461.29 3278.67C481.549 3480.64 542.926 3660.28 556.189 3864.57C570.18 4079.56 499.457 4306.08 540.072 4512.75" stroke="url(#paint53_linear_3174_2949)" stroke-width="2" stroke-miterlimit="10"/>
<path d="M585 3.79236C578.55 239.736 507.239 429.869 516.991 672.953C524.644 863.68 554.276 1050.06 552.541 1242.85C551.058 1407.15 523.441 1569.16 512.528 1731.33C500.902 1904.18 503.574 2071.02 533.08 2234.35C567.819 2426.48 549.603 2593.54 512.948 2778.63C479.482 2947.72 441.385 3087.03 461 3278.51C481.748 3481.01 542.608 3659.81 556.934 3864.82C571.946 4079.56 497.404 4307.27 540.145 4513" stroke="url(#paint54_linear_3174_2949)" stroke-width="2" stroke-miterlimit="10"/>
</g>
<defs>
<linearGradient id="paint0_linear_3174_2949" x1="117.508" y1="1.00001" x2="117.507" y2="4510.08" gradientUnits="userSpaceOnUse">
<stop offset="0.28125" stop-color="#C18FFF"/>
<stop offset="0.494792" stop-color="#0CB6FF"/>
<stop offset="0.708333" stop-color="#27F09E"/>
</linearGradient>
<linearGradient id="paint1_linear_3174_2949" x1="135.368" y1="1.0243" x2="135.367" y2="4510.01" gradientUnits="userSpaceOnUse">
<stop offset="0.28125" stop-color="#C18FFF"/>
<stop offset="0.494792" stop-color="#0CB6FF"/>
<stop offset="0.708333" stop-color="#27F09E"/>
</linearGradient>
<linearGradient id="paint2_linear_3174_2949" x1="151.917" y1="1.09132" x2="151.916" y2="4510.11" gradientUnits="userSpaceOnUse">
<stop offset="0.28125" stop-color="#C18FFF"/>
<stop offset="0.494792" stop-color="#0CB6FF"/>
<stop offset="0.708333" stop-color="#27F09E"/>
</linearGradient>
<linearGradient id="paint3_linear_3174_2949" x1="167.398" y1="1.14747" x2="167.397" y2="4510.32" gradientUnits="userSpaceOnUse">
<stop offset="0.28125" stop-color="#C18FFF"/>
<stop offset="0.494792" stop-color="#0CB6FF"/>
<stop offset="0.708333" stop-color="#27F09E"/>
</linearGradient>
<linearGradient id="paint4_linear_3174_2949" x1="182.094" y1="1.17286" x2="182.094" y2="4510.25" gradientUnits="userSpaceOnUse">
<stop offset="0.28125" stop-color="#C18FFF"/>
<stop offset="0.494792" stop-color="#0CB6FF"/>
<stop offset="0.708333" stop-color="#27F09E"/>
</linearGradient>
<linearGradient id="paint5_linear_3174_2949" x1="194.765" y1="1.25269" x2="194.765" y2="4510.34" gradientUnits="userSpaceOnUse">
<stop offset="0.28125" stop-color="#C18FFF"/>
<stop offset="0.494792" stop-color="#0CB6FF"/>
<stop offset="0.708333" stop-color="#27F09E"/>
</linearGradient>
<linearGradient id="paint6_linear_3174_2949" x1="207.277" y1="1.3097" x2="207.277" y2="4510.42" gradientUnits="userSpaceOnUse">
<stop offset="0.28125" stop-color="#C18FFF"/>
<stop offset="0.494792" stop-color="#0CB6FF"/>
<stop offset="0.708333" stop-color="#27F09E"/>
</linearGradient>
<linearGradient id="paint7_linear_3174_2949" x1="219.134" y1="1.36903" x2="219.134" y2="4510.51" gradientUnits="userSpaceOnUse">
<stop offset="0.28125" stop-color="#C18FFF"/>
<stop offset="0.494792" stop-color="#0CB6FF"/>
<stop offset="0.708333" stop-color="#27F09E"/>
</linearGradient>
<linearGradient id="paint8_linear_3174_2949" x1="230.65" y1="1.43592" x2="230.649" y2="4510.39" gradientUnits="userSpaceOnUse">
<stop offset="0.28125" stop-color="#C18FFF"/>
<stop offset="0.494792" stop-color="#0CB6FF"/>
<stop offset="0.708333" stop-color="#27F09E"/>
</linearGradient>
<linearGradient id="paint9_linear_3174_2949" x1="241.619" y1="1.49427" x2="241.619" y2="4510.58" gradientUnits="userSpaceOnUse">
<stop offset="0.28125" stop-color="#C18FFF"/>
<stop offset="0.494792" stop-color="#0CB6FF"/>
<stop offset="0.708333" stop-color="#27F09E"/>
</linearGradient>
<linearGradient id="paint10_linear_3174_2949" x1="252.227" y1="1.55274" x2="252.226" y2="4510.76" gradientUnits="userSpaceOnUse">
<stop offset="0.28125" stop-color="#C18FFF"/>
<stop offset="0.494792" stop-color="#0CB6FF"/>
<stop offset="0.708333" stop-color="#27F09E"/>
</linearGradient>
<linearGradient id="paint11_linear_3174_2949" x1="262.466" y1="1.62074" x2="262.466" y2="4510.64" gradientUnits="userSpaceOnUse">
<stop offset="0.28125" stop-color="#C18FFF"/>
<stop offset="0.494792" stop-color="#0CB6FF"/>
<stop offset="0.708333" stop-color="#27F09E"/>
</linearGradient>
<linearGradient id="paint12_linear_3174_2949" x1="272.391" y1="1.67921" x2="272.391" y2="4510.76" gradientUnits="userSpaceOnUse">
<stop offset="0.28125" stop-color="#C18FFF"/>
<stop offset="0.494792" stop-color="#0CB6FF"/>
<stop offset="0.708333" stop-color="#27F09E"/>
</linearGradient>
<linearGradient id="paint13_linear_3174_2949" x1="282.54" y1="1.74623" x2="282.54" y2="4510.7" gradientUnits="userSpaceOnUse">
<stop offset="0.28125" stop-color="#C18FFF"/>
<stop offset="0.494792" stop-color="#0CB6FF"/>
<stop offset="0.708333" stop-color="#27F09E"/>
</linearGradient>
<linearGradient id="paint14_linear_3174_2949" x1="292.182" y1="1.80628" x2="292.181" y2="4510.8" gradientUnits="userSpaceOnUse">
<stop offset="0.28125" stop-color="#C18FFF"/>
<stop offset="0.494792" stop-color="#0CB6FF"/>
<stop offset="0.708333" stop-color="#27F09E"/>
</linearGradient>
<linearGradient id="paint15_linear_3174_2949" x1="302.283" y1="1.87049" x2="302.283" y2="4510.83" gradientUnits="userSpaceOnUse">
<stop offset="0.28125" stop-color="#C18FFF"/>
<stop offset="0.494792" stop-color="#0CB6FF"/>
<stop offset="0.708333" stop-color="#27F09E"/>
</linearGradient>
<linearGradient id="paint16_linear_3174_2949" x1="312.682" y1="1.93177" x2="312.682" y2="4511.14" gradientUnits="userSpaceOnUse">
<stop offset="0.28125" stop-color="#C18FFF"/>
<stop offset="0.494792" stop-color="#0CB6FF"/>
<stop offset="0.708333" stop-color="#27F09E"/>
</linearGradient>
<linearGradient id="paint17_linear_3174_2949" x1="323.419" y1="1.99024" x2="323.419" y2="4511.07" gradientUnits="userSpaceOnUse">
<stop offset="0.28125" stop-color="#C18FFF"/>
<stop offset="0.494792" stop-color="#0CB6FF"/>
<stop offset="0.708333" stop-color="#27F09E"/>
</linearGradient>
<linearGradient id="paint18_linear_3174_2949" x1="334.415" y1="2.08167" x2="334.414" y2="4511.16" gradientUnits="userSpaceOnUse">
<stop offset="0.28125" stop-color="#C18FFF"/>
<stop offset="0.494792" stop-color="#0CB6FF"/>
<stop offset="0.708333" stop-color="#27F09E"/>
</linearGradient>
<linearGradient id="paint19_linear_3174_2949" x1="345.221" y1="2.16017" x2="345.221" y2="4511.34" gradientUnits="userSpaceOnUse">
<stop offset="0.28125" stop-color="#C18FFF"/>
<stop offset="0.494792" stop-color="#0CB6FF"/>
<stop offset="0.708333" stop-color="#27F09E"/>
</linearGradient>
<linearGradient id="paint20_linear_3174_2949" x1="355.78" y1="2.21864" x2="355.779" y2="4511.3" gradientUnits="userSpaceOnUse">
<stop offset="0.28125" stop-color="#C18FFF"/>
<stop offset="0.494792" stop-color="#0CB6FF"/>
<stop offset="0.708333" stop-color="#27F09E"/>
</linearGradient>
<linearGradient id="paint21_linear_3174_2949" x1="366.157" y1="2.28578" x2="366.157" y2="4511.46" gradientUnits="userSpaceOnUse">
<stop offset="0.28125" stop-color="#C18FFF"/>
<stop offset="0.494792" stop-color="#0CB6FF"/>
<stop offset="0.708333" stop-color="#27F09E"/>
</linearGradient>
<linearGradient id="paint22_linear_3174_2949" x1="376.225" y1="2.34413" x2="376.225" y2="4511.43" gradientUnits="userSpaceOnUse">
<stop offset="0.28125" stop-color="#C18FFF"/>
<stop offset="0.494792" stop-color="#0CB6FF"/>
<stop offset="0.708333" stop-color="#27F09E"/>
</linearGradient>
<linearGradient id="paint23_linear_3174_2949" x1="386.124" y1="2.4369" x2="386.123" y2="4511.61" gradientUnits="userSpaceOnUse">
<stop offset="0.28125" stop-color="#C18FFF"/>
<stop offset="0.494792" stop-color="#0CB6FF"/>
<stop offset="0.708333" stop-color="#27F09E"/>
</linearGradient>
<linearGradient id="paint24_linear_3174_2949" x1="395.668" y1="2.5055" x2="395.667" y2="4511.56" gradientUnits="userSpaceOnUse">
<stop offset="0.28125" stop-color="#C18FFF"/>
<stop offset="0.494792" stop-color="#0CB6FF"/>
<stop offset="0.708333" stop-color="#27F09E"/>
</linearGradient>
<linearGradient id="paint25_linear_3174_2949" x1="405.018" y1="2.56385" x2="405.018" y2="4511.65" gradientUnits="userSpaceOnUse">
<stop offset="0.28125" stop-color="#C18FFF"/>
<stop offset="0.494792" stop-color="#0CB6FF"/>
<stop offset="0.708333" stop-color="#27F09E"/>
</linearGradient>
<linearGradient id="paint26_linear_3174_2949" x1="414.146" y1="2.63099" x2="414.145" y2="4511.65" gradientUnits="userSpaceOnUse">
<stop offset="0.28125" stop-color="#C18FFF"/>
<stop offset="0.494792" stop-color="#0CB6FF"/>
<stop offset="0.708333" stop-color="#27F09E"/>
</linearGradient>
<linearGradient id="paint27_linear_3174_2949" x1="422.881" y1="2.68946" x2="422.881" y2="4511.77" gradientUnits="userSpaceOnUse">
<stop offset="0.28125" stop-color="#C18FFF"/>
<stop offset="0.494792" stop-color="#0CB6FF"/>
<stop offset="0.708333" stop-color="#27F09E"/>
</linearGradient>
<linearGradient id="paint28_linear_3174_2949" x1="431.406" y1="2.75794" x2="431.406" y2="4511.84" gradientUnits="userSpaceOnUse">
<stop offset="0.28125" stop-color="#C18FFF"/>
<stop offset="0.494792" stop-color="#0CB6FF"/>
<stop offset="0.708333" stop-color="#27F09E"/>
</linearGradient>
<linearGradient id="paint29_linear_3174_2949" x1="439.506" y1="2.81654" x2="439.506" y2="4511.9" gradientUnits="userSpaceOnUse">
<stop offset="0.28125" stop-color="#C18FFF"/>
<stop offset="0.494792" stop-color="#0CB6FF"/>
<stop offset="0.708333" stop-color="#27F09E"/>
</linearGradient>
<linearGradient id="paint30_linear_3174_2949" x1="447.348" y1="2.88368" x2="447.348" y2="4511.97" gradientUnits="userSpaceOnUse">
<stop offset="0.28125" stop-color="#C18FFF"/>
<stop offset="0.494792" stop-color="#0CB6FF"/>
<stop offset="0.708333" stop-color="#27F09E"/>
</linearGradient>
<linearGradient id="paint31_linear_3174_2949" x1="454.776" y1="2.94203" x2="454.776" y2="4512.02" gradientUnits="userSpaceOnUse">
<stop offset="0.28125" stop-color="#C18FFF"/>
<stop offset="0.494792" stop-color="#0CB6FF"/>
<stop offset="0.708333" stop-color="#27F09E"/>
</linearGradient>
<linearGradient id="paint32_linear_3174_2949" x1="461.734" y1="3.0005" x2="461.734" y2="4511.86" gradientUnits="userSpaceOnUse">
<stop offset="0.28125" stop-color="#C18FFF"/>
<stop offset="0.494792" stop-color="#0CB6FF"/>
<stop offset="0.708333" stop-color="#27F09E"/>
</linearGradient>
<linearGradient id="paint33_linear_3174_2949" x1="468.405" y1="3.06898" x2="468.405" y2="4512.31" gradientUnits="userSpaceOnUse">
<stop offset="0.28125" stop-color="#C18FFF"/>
<stop offset="0.494792" stop-color="#0CB6FF"/>
<stop offset="0.708333" stop-color="#27F09E"/>
</linearGradient>
<linearGradient id="paint34_linear_3174_2949" x1="474.467" y1="3.1277" x2="474.466" y2="4512.26" gradientUnits="userSpaceOnUse">
<stop offset="0.28125" stop-color="#C18FFF"/>
<stop offset="0.494792" stop-color="#0CB6FF"/>
<stop offset="0.708333" stop-color="#27F09E"/>
</linearGradient>
<linearGradient id="paint35_linear_3174_2949" x1="479.189" y1="3.19471" x2="479.189" y2="4512.28" gradientUnits="userSpaceOnUse">
<stop offset="0.28125" stop-color="#C18FFF"/>
<stop offset="0.494792" stop-color="#0CB6FF"/>
<stop offset="0.708333" stop-color="#27F09E"/>
</linearGradient>
<linearGradient id="paint36_linear_3174_2949" x1="483.512" y1="3.25319" x2="483.511" y2="4512.43" gradientUnits="userSpaceOnUse">
<stop offset="0.28125" stop-color="#C18FFF"/>
<stop offset="0.494792" stop-color="#0CB6FF"/>
<stop offset="0.708333" stop-color="#27F09E"/>
</linearGradient>
<linearGradient id="paint37_linear_3174_2949" x1="487.314" y1="3.28737" x2="487.314" y2="4512.37" gradientUnits="userSpaceOnUse">
<stop offset="0.28125" stop-color="#C18FFF"/>
<stop offset="0.494792" stop-color="#0CB6FF"/>
<stop offset="0.708333" stop-color="#27F09E"/>
</linearGradient>
<linearGradient id="paint38_linear_3174_2949" x1="490.64" y1="3.34596" x2="490.639" y2="4512.27" gradientUnits="userSpaceOnUse">
<stop offset="0.28125" stop-color="#C18FFF"/>
<stop offset="0.494792" stop-color="#0CB6FF"/>
<stop offset="0.708333" stop-color="#27F09E"/>
</linearGradient>
<linearGradient id="paint39_linear_3174_2949" x1="493.436" y1="3.41444" x2="493.436" y2="4512.4" gradientUnits="userSpaceOnUse">
<stop offset="0.28125" stop-color="#C18FFF"/>
<stop offset="0.494792" stop-color="#0CB6FF"/>
<stop offset="0.708333" stop-color="#27F09E"/>
</linearGradient>
<linearGradient id="paint40_linear_3174_2949" x1="495.832" y1="3.44716" x2="495.832" y2="4512.4" gradientUnits="userSpaceOnUse">
<stop offset="0.28125" stop-color="#C18FFF"/>
<stop offset="0.494792" stop-color="#0CB6FF"/>
<stop offset="0.708333" stop-color="#27F09E"/>
</linearGradient>
<linearGradient id="paint41_linear_3174_2949" x1="498.704" y1="3.47291" x2="498.703" y2="4512.49" gradientUnits="userSpaceOnUse">
<stop offset="0.28125" stop-color="#C18FFF"/>
<stop offset="0.494792" stop-color="#0CB6FF"/>
<stop offset="0.708333" stop-color="#27F09E"/>
</linearGradient>
<linearGradient id="paint42_linear_3174_2949" x1="502.374" y1="3.53846" x2="502.374" y2="4512.75" gradientUnits="userSpaceOnUse">
<stop offset="0.28125" stop-color="#C18FFF"/>
<stop offset="0.494792" stop-color="#0CB6FF"/>
<stop offset="0.708333" stop-color="#27F09E"/>
</linearGradient>
<linearGradient id="paint43_linear_3174_2949" x1="505.647" y1="3.56569" x2="505.647" y2="4512.68" gradientUnits="userSpaceOnUse">
<stop offset="0.28125" stop-color="#C18FFF"/>
<stop offset="0.494792" stop-color="#0CB6FF"/>
<stop offset="0.708333" stop-color="#27F09E"/>
</linearGradient>
<linearGradient id="paint44_linear_3174_2949" x1="508.52" y1="3.5984" x2="508.52" y2="4512.68" gradientUnits="userSpaceOnUse">
<stop offset="0.28125" stop-color="#C18FFF"/>
<stop offset="0.494792" stop-color="#0CB6FF"/>
<stop offset="0.708333" stop-color="#27F09E"/>
</linearGradient>
<linearGradient id="paint45_linear_3174_2949" x1="511.062" y1="3.79237" x2="511.062" y2="4512.72" gradientUnits="userSpaceOnUse">
<stop offset="0.28125" stop-color="#C18FFF"/>
<stop offset="0.494792" stop-color="#0CB6FF"/>
<stop offset="0.708333" stop-color="#27F09E"/>
</linearGradient>
<linearGradient id="paint46_linear_3174_2949" x1="513.208" y1="3.79237" x2="513.207" y2="4512.75" gradientUnits="userSpaceOnUse">
<stop offset="0.28125" stop-color="#C18FFF"/>
<stop offset="0.494792" stop-color="#0CB6FF"/>
<stop offset="0.708333" stop-color="#27F09E"/>
</linearGradient>
<linearGradient id="paint47_linear_3174_2949" x1="515.062" y1="3.79237" x2="515.062" y2="4512.84" gradientUnits="userSpaceOnUse">
<stop offset="0.28125" stop-color="#C18FFF"/>
<stop offset="0.494792" stop-color="#0CB6FF"/>
<stop offset="0.708333" stop-color="#27F09E"/>
</linearGradient>
<linearGradient id="paint48_linear_3174_2949" x1="516.627" y1="3.79237" x2="516.627" y2="4512.84" gradientUnits="userSpaceOnUse">
<stop offset="0.28125" stop-color="#C18FFF"/>
<stop offset="0.494792" stop-color="#0CB6FF"/>
<stop offset="0.708333" stop-color="#27F09E"/>
</linearGradient>
<linearGradient id="paint49_linear_3174_2949" x1="517.889" y1="3.79237" x2="517.889" y2="4512.87" gradientUnits="userSpaceOnUse">
<stop offset="0.28125" stop-color="#C18FFF"/>
<stop offset="0.494792" stop-color="#0CB6FF"/>
<stop offset="0.708333" stop-color="#27F09E"/>
</linearGradient>
<linearGradient id="paint50_linear_3174_2949" x1="518.806" y1="3.79237" x2="518.806" y2="4512.84" gradientUnits="userSpaceOnUse">
<stop offset="0.28125" stop-color="#C18FFF"/>
<stop offset="0.494792" stop-color="#0CB6FF"/>
<stop offset="0.708333" stop-color="#27F09E"/>
</linearGradient>
<linearGradient id="paint51_linear_3174_2949" x1="519.569" y1="3.79237" x2="519.569" y2="4512.87" gradientUnits="userSpaceOnUse">
<stop offset="0.28125" stop-color="#C18FFF"/>
<stop offset="0.494792" stop-color="#0CB6FF"/>
<stop offset="0.708333" stop-color="#27F09E"/>
</linearGradient>
<linearGradient id="paint52_linear_3174_2949" x1="519.99" y1="3.79237" x2="519.99" y2="4512.87" gradientUnits="userSpaceOnUse">
<stop offset="0.28125" stop-color="#C18FFF"/>
<stop offset="0.494792" stop-color="#0CB6FF"/>
<stop offset="0.708333" stop-color="#27F09E"/>
</linearGradient>
<linearGradient id="paint53_linear_3174_2949" x1="520.272" y1="3.79237" x2="520.272" y2="4512.75" gradientUnits="userSpaceOnUse">
<stop offset="0.28125" stop-color="#C18FFF"/>
<stop offset="0.494792" stop-color="#0CB6FF"/>
<stop offset="0.708333" stop-color="#27F09E"/>
</linearGradient>
<linearGradient id="paint54_linear_3174_2949" x1="520.893" y1="3.79237" x2="520.893" y2="4513" gradientUnits="userSpaceOnUse">
<stop offset="0.28125" stop-color="#C18FFF"/>
<stop offset="0.494792" stop-color="#0CB6FF"/>
<stop offset="0.708333" stop-color="#27F09E"/>
</linearGradient>
</defs>
</svg>
